 <svg width="24" height="24" viewBox="0 0 24 24" fill="none" xmlns="http://www.w3.org/2000/svg"><path fill-rule="evenodd" clip-rule="evenodd" d="M11.7688 0C12.2001 0 12.735 0.0134567 12.9557 0.0302775C13.1763 0.0504626 13.5441 0.097561 13.7748 0.134567C14.0055 0.171573 14.4335 0.255677 14.7277 0.32296C15.0219 0.38688 15.5033 0.521447 15.7976 0.619008C16.0918 0.716568 16.513 0.874685 16.7337 0.968881C16.9544 1.06644 17.3322 1.24811 17.5696 1.37258C17.8069 1.49706 18.1313 1.67536 18.2884 1.76955C18.4455 1.86375 18.7498 2.0656 18.9638 2.22035C19.1777 2.37511 19.5154 2.63751 19.716 2.80572C19.9133 2.97056 20.2978 3.32717 20.5652 3.5963C20.8327 3.86543 21.1771 4.23549 21.3275 4.42052C21.4813 4.60555 21.7087 4.9016 21.8324 5.07653C21.9594 5.25147 22.1534 5.54752 22.2704 5.73255C22.3874 5.91758 22.6047 6.31119 22.7552 6.60723C22.909 6.90328 23.0995 7.30362 23.1798 7.49874C23.26 7.69386 23.4038 8.08747 23.4974 8.37342C23.591 8.65938 23.698 9.01598 23.7348 9.164C23.7716 9.31203 23.8251 9.54752 23.8552 9.68545C23.8852 9.82338 23.9254 10.143 23.9421 10.3919C23.9621 10.6409 23.9855 11.2262 23.9956 11.6871C24.0056 12.2254 23.9989 12.6627 23.9722 12.8982C23.9521 13.1034 23.9053 13.4735 23.8652 13.7225C23.8284 13.9714 23.7615 14.3415 23.7181 14.5467C23.6713 14.7519 23.5843 15.0984 23.5175 15.3204C23.4539 15.5425 23.3235 15.9294 23.2299 16.1783C23.1363 16.4272 22.9625 16.8377 22.8454 17.0866C22.7284 17.3356 22.5546 17.6754 22.461 17.8436C22.3673 18.0118 22.15 18.3583 21.9795 18.6173C21.8123 18.8764 21.5382 19.2532 21.3743 19.4584C21.2139 19.6602 20.8762 20.037 20.6288 20.296C20.3814 20.5517 19.9969 20.9151 19.7795 21.1034C19.5622 21.2885 19.3048 21.5004 19.2112 21.5711C19.1176 21.6384 19.0206 21.6955 19.0005 21.6955C18.9671 21.6955 18.9571 21.3423 18.9571 18.3987L19.2179 18.069C19.3583 17.8907 19.5756 17.598 19.696 17.423C19.8197 17.2481 20.0136 16.9386 20.1306 16.7334C20.2443 16.5282 20.3981 16.2355 20.4716 16.0774C20.5452 15.9193 20.6589 15.6468 20.7291 15.4718C20.7959 15.2969 20.8996 14.9941 20.9564 14.799C21.0133 14.6039 21.0968 14.2708 21.1437 14.0589C21.1871 13.8469 21.2506 13.4735 21.2841 13.2347C21.3175 12.9622 21.3409 12.5652 21.3409 12.1749C21.3409 11.8318 21.3242 11.3776 21.3008 11.1657C21.2774 10.9537 21.2239 10.5904 21.1771 10.3583C21.1336 10.1262 21.0534 9.77965 20.9965 9.58452C20.9431 9.3894 20.8361 9.06644 20.7592 8.86123C20.6856 8.65601 20.5118 8.2624 20.3747 7.98654C20.2409 7.70732 20.0303 7.3238 19.9099 7.12868C19.7862 6.93356 19.5856 6.63751 19.4586 6.47267C19.3349 6.30782 19.0674 5.98822 18.8668 5.76619C18.6662 5.54415 18.3519 5.23129 18.168 5.07317C17.9875 4.91169 17.7033 4.68629 17.5361 4.56518C17.369 4.44743 17.0848 4.25231 16.9009 4.13793C16.717 4.02019 16.386 3.83852 16.1653 3.73087C15.9447 3.62321 15.6103 3.47182 15.4198 3.39781C15.2325 3.32044 14.9082 3.20942 14.7043 3.1455C14.497 3.08158 14.1459 2.99075 13.9253 2.94365C13.7046 2.89655 13.3368 2.836 13.1061 2.80908C12.8754 2.78217 12.521 2.74853 12.3204 2.73844C12.1198 2.72498 11.7119 2.73171 11.4177 2.75189C11.1235 2.77544 10.7022 2.82254 10.4816 2.85955C10.2609 2.89655 9.90649 2.97056 9.69586 3.02439C9.48522 3.07822 9.13082 3.18251 8.91016 3.25988C8.68949 3.33389 8.20804 3.54584 7.84027 3.73087C7.4725 3.91253 6.99105 4.18166 6.77038 4.32632C6.54972 4.47435 6.21204 4.71993 6.01812 4.87468C5.8242 5.0328 5.50992 5.31875 5.316 5.51388C5.12209 5.709 4.8379 6.02523 4.6841 6.22035C4.52696 6.41547 4.29292 6.73844 4.15919 6.94365C4.02545 7.14886 3.84157 7.45837 3.74461 7.63331C3.65099 7.80824 3.49051 8.14129 3.38686 8.37342C3.28322 8.60555 3.13611 8.99243 3.05921 9.23129C2.97897 9.47014 2.87867 9.84357 2.83186 10.0555C2.78505 10.2675 2.72153 10.6072 2.69478 10.8124C2.66469 11.0177 2.6346 11.3944 2.62122 11.6535C2.61119 11.9125 2.61788 12.4138 2.63794 12.7637C2.658 13.1236 2.70147 13.5576 2.74159 13.7561C2.78171 13.9512 2.85861 14.2843 2.9121 14.4962C2.96894 14.7082 3.08261 15.0715 3.16286 15.3036C3.24644 15.5357 3.43367 15.9664 3.57744 16.2624C3.7212 16.5585 3.9753 17.0059 4.13913 17.2548C4.30295 17.5038 4.5604 17.8604 4.98166 18.3818V21.6955L4.82787 21.5879C4.74094 21.5273 4.56374 21.386 4.43335 21.275C4.29961 21.164 4.02545 20.9184 3.82485 20.73C3.62424 20.5416 3.29325 20.2019 3.08596 19.9731C2.87867 19.7443 2.61788 19.4382 2.50421 19.2902C2.39053 19.1421 2.15984 18.8091 1.98932 18.55C1.81881 18.291 1.5714 17.8806 1.44101 17.6417C1.31061 17.4029 1.12004 17.0059 1.01639 16.767C0.912748 16.5282 0.748921 16.0942 0.651963 15.8082C0.555004 15.5223 0.424612 15.0749 0.357744 14.8158C0.290876 14.5568 0.220665 14.254 0.203948 14.143C0.183887 14.032 0.130393 13.6484 0.083585 13.2918C0.016717 12.7738 0 12.5013 0 11.9159C0 11.4045 0.0200602 11.0177 0.0635244 10.6442C0.100302 10.3482 0.143766 9.96804 0.16717 9.80319C0.18723 9.63835 0.227352 9.34903 0.257442 9.164C0.284189 8.97897 0.351057 8.69638 0.404551 8.53154C0.458046 8.37006 0.52157 8.20521 0.548317 8.16148C0.575064 8.12111 0.682053 7.8688 0.785699 7.59966C0.889344 7.33053 1.07657 6.89992 1.20362 6.64087C1.32733 6.38183 1.54799 5.97477 1.6951 5.73255C1.83887 5.49033 2.08962 5.1169 2.25011 4.89823C2.41059 4.68293 2.69812 4.32632 2.88535 4.10765C3.07593 3.89235 3.39689 3.55593 3.5975 3.36417C3.7981 3.17241 4.14247 2.86964 4.36314 2.69134C4.5838 2.51304 4.94489 2.2439 5.16555 2.09588C5.38622 1.94449 5.76402 1.71236 6.0014 1.5778C6.23878 1.44323 6.63999 1.23802 6.8874 1.12363C7.13481 1.00925 7.54271 0.837679 7.79012 0.743482C8.03753 0.652649 8.46549 0.514718 8.74299 0.440706C9.01715 0.363331 9.39495 0.272498 9.57884 0.232128C9.76272 0.195122 10.1539 0.127839 10.4481 0.0807401C10.8894 0.0168209 11.1235 0.00336417 11.7688 0ZM11.8691 3.33053C11.9159 3.33053 12.0964 3.34399 12.2703 3.36081C12.4441 3.38099 12.6715 3.42136 12.7718 3.45164C12.8721 3.47855 13.0393 3.54584 13.1396 3.5963C13.2399 3.64676 13.397 3.74769 13.4906 3.81497C13.5809 3.88562 13.7247 4.02355 13.8082 4.12111C13.8918 4.21867 14.0088 4.38688 14.0657 4.49453C14.1259 4.60219 14.2128 4.78722 14.2596 4.90833C14.3031 5.02944 14.3766 5.26493 14.4167 5.42977C14.4803 5.69218 14.4936 5.82338 14.4936 6.38856C14.4936 6.91337 14.4803 7.0984 14.4301 7.31371C14.3967 7.46173 14.3231 7.71068 14.2663 7.8688C14.2094 8.02691 14.0924 8.26241 14.0055 8.39024C13.9219 8.52145 13.738 8.75357 13.5976 8.91169C13.4538 9.06981 13.3402 9.22792 13.3402 9.26493C13.3402 9.30193 13.3703 9.38267 13.407 9.44323C13.4438 9.50378 13.5341 9.5778 13.6143 9.6148C13.6946 9.65181 14.0122 9.75946 14.3265 9.85366C14.6675 9.95795 15.0353 10.0959 15.2459 10.2002C15.4398 10.2944 15.7474 10.476 15.9313 10.5971C16.1152 10.7216 16.386 10.9336 16.5298 11.0715C16.6769 11.2061 16.8909 11.4382 17.0079 11.5862C17.1349 11.7443 17.2987 12.0067 17.4024 12.2254C17.5027 12.4306 17.6164 12.693 17.7334 13.0328L17.7702 22.513L17.6531 22.5904C17.5896 22.6341 17.3255 22.7653 17.0681 22.8831C16.8106 23.0008 16.4127 23.169 16.1821 23.2532C15.9514 23.3406 15.6137 23.455 15.4298 23.5088C15.2459 23.5627 14.9751 23.64 14.828 23.677C14.6809 23.714 14.4468 23.7679 14.3097 23.7948C14.1727 23.8217 13.8049 23.8789 13.4906 23.9226C13.0092 23.9865 12.7785 24 12.0028 24C11.2271 24 10.9964 23.9865 10.515 23.9226C10.2007 23.8789 9.83294 23.8217 9.69586 23.7948C9.55878 23.7679 9.24784 23.6939 9.01046 23.6299C8.77308 23.5694 8.44208 23.4718 8.27491 23.418C8.10774 23.3642 7.78678 23.2431 7.55608 23.1489C7.32539 23.058 6.95093 22.8932 6.72023 22.7822C6.48954 22.6745 6.27222 22.5534 6.23544 22.5198C6.16857 22.4525 6.16857 22.4188 6.18529 17.894C6.202 13.8368 6.21204 13.3087 6.25884 13.1001C6.28893 12.9689 6.34911 12.767 6.39592 12.6459C6.43939 12.5248 6.52631 12.3297 6.5865 12.2086C6.64668 12.0875 6.7637 11.8856 6.85062 11.7544C6.93421 11.6232 7.15487 11.3675 7.33876 11.1825C7.55608 10.9638 7.81018 10.7553 8.05759 10.587C8.26823 10.4458 8.56244 10.2742 8.70955 10.2069C8.85666 10.1396 9.30134 9.97477 9.69586 9.84693C10.311 9.64172 10.4314 9.59125 10.5217 9.49369C10.5919 9.42304 10.632 9.34903 10.632 9.28848C10.632 9.22119 10.5618 9.12027 10.3779 8.91169C10.2375 8.75357 10.077 8.55845 10.0202 8.47435C9.96333 8.39024 9.85968 8.20185 9.79282 8.05383C9.7226 7.9058 9.63567 7.66358 9.5989 7.51556C9.56212 7.36754 9.51531 7.10177 9.49525 6.92683C9.47854 6.75189 9.46182 6.47939 9.46182 6.32128C9.46182 6.16316 9.48522 5.89739 9.51197 5.73255C9.53872 5.5677 9.58218 5.3524 9.60558 5.26156C9.63233 5.16737 9.68917 4.9857 9.73932 4.85786C9.78613 4.73002 9.88977 4.52481 9.96667 4.4037C10.0436 4.28259 10.184 4.10765 10.2776 4.01346C10.3712 3.91926 10.5317 3.78806 10.632 3.72414C10.7323 3.65685 10.9095 3.56602 11.0232 3.51556C11.1402 3.46846 11.3575 3.40791 11.508 3.38099C11.6618 3.35408 11.8223 3.33389 11.8691 3.33053ZM10.8995 12.9319C10.8025 13.1909 10.6588 13.5711 10.5819 13.7729C10.5016 13.9781 9.90315 15.5425 9.25119 17.2548C8.59922 18.9672 8.03084 20.4508 7.99407 20.5517C7.95394 20.6526 7.92386 20.7704 7.92386 20.8141C7.92386 20.8545 7.96398 20.9184 8.01413 20.9554C8.10106 21.0193 8.15455 21.0261 8.73296 21.0227C9.08401 21.0227 9.39161 21.0093 9.42838 20.9891C9.46516 20.9689 9.52534 20.8713 9.56546 20.7637C9.60558 20.656 9.78613 20.1514 9.97002 19.6434C10.1539 19.1354 10.3177 18.6779 10.3344 18.6274L10.3645 18.5332H13.4739C13.611 18.91 13.8149 19.4449 14.0122 19.963C14.2629 20.6123 14.4 20.9251 14.4502 20.9655C14.517 21.0193 14.604 21.0261 15.1957 21.0261C15.8143 21.0261 15.8711 21.0193 15.9547 20.9554C16.0082 20.9184 16.0483 20.8545 16.0483 20.8141C16.0483 20.7704 15.2894 18.8663 14.3599 16.582C13.1763 13.6686 12.6481 12.4104 12.5979 12.3667C12.5311 12.3129 12.4475 12.3061 11.8791 12.3095C11.2606 12.3095 11.2338 12.3129 11.1569 12.3869C11.1034 12.434 11.0098 12.6358 10.8995 12.9319ZM11.9025 14.3785C11.9159 14.3987 12.1466 15.0042 12.414 15.7241C12.6815 16.4441 12.9089 17.0631 12.9189 17.0967C12.939 17.1505 12.8754 17.1539 11.9025 17.1539C10.9296 17.1539 10.866 17.1505 10.8861 17.0967C10.8961 17.0631 11.0834 16.5585 11.3007 15.9764C11.5147 15.3944 11.7353 14.7889 11.7855 14.6308C11.8356 14.4727 11.8858 14.3583 11.9025 14.3785Z" fill="currentColor"/></svg>