<svg width="51" height="37" viewBox="0 0 51 37" fill="none" xmlns="http://www.w3.org/2000/svg">
<path d="M1.108 35C1.012 35 0.976 34.952 1 34.856L3.628 27.248C3.652 27.176 3.7 27.14 3.772 27.14H5.056C5.136 27.14 5.188 27.176 5.212 27.248L7.864 34.856C7.88 34.896 7.876 34.932 7.852 34.964C7.836 34.988 7.804 35 7.756 35H6.724C6.644 35 6.592 34.964 6.568 34.892L4.888 29.708C4.808 29.46 4.728 29.212 4.648 28.964C4.568 28.708 4.488 28.456 4.408 28.208H4.384C4.312 28.456 4.236 28.704 4.156 28.952C4.076 29.192 3.996 29.436 3.916 29.684L2.26 34.892C2.236 34.964 2.184 35 2.104 35H1.108ZM2.584 33.248L2.848 32.228H5.956L6.232 33.248H2.584ZM9.75147 35.144C9.23147 35.144 8.83547 34.976 8.56347 34.64C8.29147 34.296 8.15547 33.8 8.15547 33.152V29.252C8.15547 29.164 8.19947 29.12 8.28747 29.12H9.22347C9.31147 29.12 9.35547 29.164 9.35547 29.252V33.02C9.35547 33.388 9.41947 33.66 9.54747 33.836C9.67547 34.012 9.87547 34.1 10.1475 34.1C10.4355 34.1 10.7195 34.012 10.9995 33.836C11.2875 33.652 11.6315 33.356 12.0315 32.948V33.956C11.7915 34.204 11.5475 34.416 11.2995 34.592C11.0515 34.768 10.7995 34.904 10.5435 35C10.2875 35.096 10.0235 35.144 9.75147 35.144ZM12.1395 35C12.0915 35 12.0555 34.992 12.0315 34.976C12.0075 34.952 11.9915 34.92 11.9835 34.88C11.9595 34.728 11.9395 34.572 11.9235 34.412C11.9075 34.252 11.8955 34.088 11.8875 33.92L11.8035 33.368V29.252C11.8035 29.164 11.8475 29.12 11.9355 29.12H12.8715C12.9595 29.12 13.0035 29.164 13.0035 29.252V33.524C13.0035 33.748 13.0075 33.976 13.0155 34.208C13.0315 34.432 13.0555 34.652 13.0875 34.868C13.1035 34.956 13.0555 35 12.9435 35H12.1395ZM16.3268 35.144C15.8868 35.144 15.5388 35.076 15.2828 34.94C15.0268 34.796 14.8388 34.58 14.7188 34.292C14.6068 33.996 14.5508 33.628 14.5508 33.188V30.14H13.6388C13.5588 30.14 13.5188 30.096 13.5188 30.008V29.252C13.5188 29.164 13.5588 29.12 13.6388 29.12H14.5868L14.7308 27.68C14.7388 27.6 14.7868 27.56 14.8748 27.56H15.6068C15.6948 27.56 15.7388 27.6 15.7388 27.68L15.7508 29.12H17.4668C17.5548 29.12 17.5988 29.164 17.5988 29.252V30.008C17.5988 30.096 17.5548 30.14 17.4668 30.14H15.7508V33.14C15.7508 33.492 15.8108 33.744 15.9308 33.896C16.0588 34.04 16.2748 34.112 16.5788 34.112C16.7308 34.112 16.8828 34.096 17.0348 34.064C17.1948 34.024 17.3348 33.976 17.4548 33.92C17.5028 33.904 17.5388 33.908 17.5628 33.932C17.5948 33.948 17.6108 33.976 17.6108 34.016V34.796C17.6108 34.868 17.5788 34.916 17.5148 34.94C17.3628 34.996 17.1868 35.044 16.9868 35.084C16.7948 35.124 16.5748 35.144 16.3268 35.144ZM20.538 35.144C19.714 35.144 19.082 34.944 18.642 34.544C18.202 34.144 17.982 33.54 17.982 32.732V31.388C17.982 30.58 18.198 29.976 18.63 29.576C19.07 29.176 19.706 28.976 20.538 28.976C21.362 28.976 21.99 29.176 22.422 29.576C22.862 29.976 23.082 30.58 23.082 31.388V32.732C23.082 33.54 22.866 34.144 22.434 34.544C22.002 34.944 21.37 35.144 20.538 35.144ZM20.538 34.1C21.01 34.1 21.35 33.98 21.558 33.74C21.774 33.5 21.882 33.128 21.882 32.624V31.496C21.882 31 21.774 30.632 21.558 30.392C21.35 30.144 21.01 30.02 20.538 30.02C20.058 30.02 19.71 30.144 19.494 30.392C19.286 30.632 19.182 31 19.182 31.496V32.624C19.182 33.128 19.286 33.5 19.494 33.74C19.71 33.98 20.058 34.1 20.538 34.1ZM24.1987 35C24.1107 35 24.0667 34.956 24.0667 34.868V30.608C24.0667 30.384 24.0587 30.156 24.0427 29.924C24.0347 29.684 24.0147 29.468 23.9827 29.276C23.9667 29.172 24.0147 29.12 24.1267 29.12H24.9667C25.0147 29.12 25.0467 29.128 25.0627 29.144C25.0787 29.152 25.0907 29.176 25.0987 29.216C25.1147 29.328 25.1347 29.452 25.1587 29.588C25.1827 29.724 25.1987 29.864 25.2067 30.008C25.5507 29.664 25.8787 29.408 26.1907 29.24C26.5107 29.064 26.8627 28.976 27.2467 28.976C27.6547 28.976 27.9827 29.068 28.2307 29.252C28.4787 29.436 28.6547 29.708 28.7587 30.068C29.1107 29.7 29.4507 29.428 29.7787 29.252C30.1067 29.068 30.4667 28.976 30.8587 28.976C31.4027 28.976 31.8107 29.144 32.0827 29.48C32.3627 29.808 32.5027 30.3 32.5027 30.956V34.868C32.5027 34.956 32.4587 35 32.3707 35H31.4347C31.3467 35 31.3027 34.956 31.3027 34.868V31.1C31.3027 30.74 31.2347 30.472 31.0987 30.296C30.9707 30.12 30.7667 30.032 30.4867 30.032C30.2467 30.032 29.9987 30.108 29.7427 30.26C29.4947 30.404 29.2067 30.632 28.8787 30.944V34.868C28.8787 34.956 28.8387 35 28.7587 35H27.8107C27.7227 35 27.6787 34.956 27.6787 34.868V31.1C27.6787 30.74 27.6147 30.472 27.4867 30.296C27.3587 30.12 27.1547 30.032 26.8747 30.032C26.6267 30.032 26.3747 30.108 26.1187 30.26C25.8707 30.404 25.5867 30.632 25.2667 30.944V34.868C25.2667 34.956 25.2227 35 25.1347 35H24.1987ZM37.072 35C37.024 35 36.988 34.984 36.964 34.952C36.948 34.92 36.932 34.88 36.916 34.832C36.908 34.76 36.888 34.624 36.856 34.424C36.832 34.224 36.816 34.036 36.808 33.86L36.748 33.392V31.004C36.748 30.628 36.672 30.364 36.52 30.212C36.376 30.052 36.12 29.972 35.752 29.972C35.416 29.972 35.164 30.032 34.996 30.152C34.828 30.272 34.748 30.448 34.756 30.68C34.756 30.768 34.716 30.812 34.636 30.812H33.712C33.624 30.812 33.576 30.74 33.568 30.596C33.528 30.1 33.708 29.708 34.108 29.42C34.508 29.124 35.068 28.976 35.788 28.976C36.524 28.976 37.068 29.144 37.42 29.48C37.772 29.808 37.948 30.312 37.948 30.992V33.524C37.948 33.796 37.956 34.044 37.972 34.268C37.988 34.492 38.008 34.688 38.032 34.856C38.048 34.952 38.004 35 37.9 35H37.072ZM34.78 35.144C34.308 35.144 33.948 35.004 33.7 34.724C33.452 34.436 33.328 34.024 33.328 33.488C33.328 33.072 33.408 32.732 33.568 32.468C33.728 32.204 33.988 32 34.348 31.856C34.716 31.712 35.204 31.616 35.812 31.568L36.94 31.472L36.928 32.288L35.848 32.384C35.344 32.424 34.992 32.516 34.792 32.66C34.6 32.804 34.504 33.044 34.504 33.38C34.504 33.636 34.556 33.828 34.66 33.956C34.764 34.084 34.924 34.148 35.14 34.148C35.388 34.148 35.648 34.064 35.92 33.896C36.192 33.728 36.544 33.42 36.976 32.972L37 33.896C36.728 34.184 36.472 34.42 36.232 34.604C36 34.788 35.764 34.924 35.524 35.012C35.292 35.1 35.044 35.144 34.78 35.144ZM41.2723 35.144C40.8323 35.144 40.4843 35.076 40.2283 34.94C39.9723 34.796 39.7843 34.58 39.6643 34.292C39.5523 33.996 39.4963 33.628 39.4963 33.188V30.14H38.5843C38.5043 30.14 38.4643 30.096 38.4643 30.008V29.252C38.4643 29.164 38.5043 29.12 38.5843 29.12H39.5323L39.6763 27.68C39.6843 27.6 39.7323 27.56 39.8203 27.56H40.5523C40.6403 27.56 40.6843 27.6 40.6843 27.68L40.6963 29.12H42.4123C42.5003 29.12 42.5443 29.164 42.5443 29.252V30.008C42.5443 30.096 42.5003 30.14 42.4123 30.14H40.6963V33.14C40.6963 33.492 40.7563 33.744 40.8763 33.896C41.0043 34.04 41.2203 34.112 41.5243 34.112C41.6763 34.112 41.8283 34.096 41.9803 34.064C42.1403 34.024 42.2803 33.976 42.4003 33.92C42.4483 33.904 42.4843 33.908 42.5083 33.932C42.5403 33.948 42.5563 33.976 42.5563 34.016V34.796C42.5563 34.868 42.5243 34.916 42.4603 34.94C42.3083 34.996 42.1323 35.044 41.9323 35.084C41.7403 35.124 41.5203 35.144 41.2723 35.144ZM43.3443 35C43.2563 35 43.2123 34.956 43.2123 34.868V29.252C43.2123 29.164 43.2563 29.12 43.3443 29.12H44.2803C44.3683 29.12 44.4123 29.164 44.4123 29.252V34.868C44.4123 34.956 44.3683 35 44.2803 35H43.3443ZM43.8123 28.196C43.5643 28.196 43.3803 28.132 43.2603 28.004C43.1403 27.868 43.0803 27.696 43.0803 27.488V27.344C43.0803 27.128 43.1403 26.956 43.2603 26.828C43.3803 26.7 43.5643 26.636 43.8123 26.636C44.0683 26.636 44.2523 26.7 44.3643 26.828C44.4843 26.956 44.5443 27.128 44.5443 27.344V27.488C44.5443 27.696 44.4843 27.868 44.3643 28.004C44.2523 28.132 44.0683 28.196 43.8123 28.196ZM47.9312 35.144C47.1072 35.144 46.4792 34.94 46.0472 34.532C45.6152 34.124 45.3992 33.54 45.3992 32.78V31.352C45.3992 30.584 45.6192 29.996 46.0592 29.588C46.4992 29.18 47.1272 28.976 47.9432 28.976C48.4472 28.976 48.8752 29.056 49.2272 29.216C49.5792 29.368 49.8472 29.58 50.0312 29.852C50.2232 30.124 50.3152 30.44 50.3072 30.8C50.2992 30.976 50.2552 31.064 50.1752 31.064H49.2512C49.2112 31.064 49.1792 31.048 49.1552 31.016C49.1392 30.984 49.1312 30.936 49.1312 30.872C49.1312 30.6 49.0232 30.392 48.8072 30.248C48.5992 30.096 48.3152 30.02 47.9552 30.02C47.4992 30.02 47.1592 30.136 46.9352 30.368C46.7112 30.6 46.5992 30.964 46.5992 31.46V32.66C46.5992 33.148 46.7112 33.512 46.9352 33.752C47.1592 33.984 47.4952 34.1 47.9432 34.1C48.3112 34.1 48.5992 34.02 48.8072 33.86C49.0152 33.7 49.1192 33.5 49.1192 33.26C49.1192 33.132 49.1592 33.068 49.2392 33.068H50.1632C50.2432 33.068 50.2872 33.108 50.2952 33.188C50.3032 33.788 50.1032 34.264 49.6952 34.616C49.2952 34.968 48.7072 35.144 47.9312 35.144Z" fill="currentColor"/>
<path fill-rule="evenodd" clip-rule="evenodd" d="M25.7688 0C26.2001 0 26.735 0.0134567 26.9557 0.0302775C27.1763 0.0504626 27.5441 0.097561 27.7748 0.134567C28.0055 0.171573 28.4335 0.255677 28.7277 0.32296C29.0219 0.38688 29.5033 0.521447 29.7976 0.619008C30.0918 0.716568 30.513 0.874685 30.7337 0.968881C30.9544 1.06644 31.3322 1.24811 31.5696 1.37258C31.8069 1.49706 32.1313 1.67536 32.2884 1.76955C32.4455 1.86375 32.7498 2.0656 32.9638 2.22035C33.1777 2.3751 33.5154 2.63751 33.716 2.80572C33.9133 2.97056 34.2978 3.32717 34.5652 3.5963C34.8327 3.86543 35.1771 4.23549 35.3275 4.42052C35.4813 4.60555 35.7087 4.9016 35.8324 5.07653C35.9594 5.25147 36.1534 5.54752 36.2704 5.73255C36.3874 5.91758 36.6047 6.31119 36.7552 6.60723C36.909 6.90328 37.0995 7.30362 37.1798 7.49874C37.26 7.69386 37.4038 8.08747 37.4974 8.37342C37.591 8.65938 37.698 9.01598 37.7348 9.164C37.7716 9.31203 37.8251 9.54752 37.8552 9.68545C37.8852 9.82338 37.9254 10.143 37.9421 10.3919C37.9621 10.6409 37.9855 11.2262 37.9956 11.6871C38.0056 12.2254 37.9989 12.6627 37.9722 12.8982C37.9521 13.1034 37.9053 13.4735 37.8652 13.7225C37.8284 13.9714 37.7615 14.3415 37.7181 14.5467C37.6713 14.7519 37.5843 15.0984 37.5175 15.3204C37.4539 15.5425 37.3235 15.9294 37.2299 16.1783C37.1363 16.4272 36.9625 16.8377 36.8454 17.0866C36.7284 17.3356 36.5546 17.6754 36.461 17.8436C36.3673 18.0118 36.15 18.3583 35.9795 18.6173C35.8123 18.8764 35.5382 19.2532 35.3743 19.4584C35.2139 19.6602 34.8762 20.037 34.6288 20.296C34.3814 20.5517 33.9969 20.9151 33.7795 21.1034C33.5622 21.2885 33.3048 21.5004 33.2112 21.5711C33.1176 21.6384 33.0206 21.6955 33.0005 21.6955C32.9671 21.6955 32.9571 21.3423 32.9571 18.3987L33.2179 18.069C33.3583 17.8907 33.5756 17.598 33.696 17.423C33.8197 17.2481 34.0136 16.9386 34.1306 16.7334C34.2443 16.5282 34.3981 16.2355 34.4716 16.0774C34.5452 15.9193 34.6589 15.6468 34.7291 15.4718C34.7959 15.2969 34.8996 14.9941 34.9564 14.799C35.0133 14.6039 35.0968 14.2708 35.1437 14.0589C35.1871 13.8469 35.2506 13.4735 35.2841 13.2347C35.3175 12.9622 35.3409 12.5652 35.3409 12.1749C35.3409 11.8318 35.3242 11.3776 35.3008 11.1657C35.2774 10.9537 35.2239 10.5904 35.1771 10.3583C35.1336 10.1262 35.0534 9.77965 34.9965 9.58452C34.9431 9.3894 34.8361 9.06644 34.7592 8.86123C34.6856 8.65601 34.5118 8.2624 34.3747 7.98654C34.2409 7.70732 34.0303 7.3238 33.9099 7.12868C33.7862 6.93356 33.5856 6.63751 33.4586 6.47267C33.3349 6.30782 33.0674 5.98822 32.8668 5.76619C32.6662 5.54415 32.3519 5.23129 32.168 5.07317C31.9875 4.91169 31.7033 4.68629 31.5361 4.56518C31.369 4.44743 31.0848 4.25231 30.9009 4.13793C30.717 4.02019 30.386 3.83852 30.1653 3.73087C29.9447 3.62321 29.6103 3.47182 29.4198 3.39781C29.2325 3.32044 28.9082 3.20942 28.7043 3.1455C28.497 3.08158 28.1459 2.99075 27.9253 2.94365C27.7046 2.89655 27.3368 2.836 27.1061 2.80908C26.8754 2.78217 26.521 2.74853 26.3204 2.73844C26.1198 2.72498 25.7119 2.73171 25.4177 2.75189C25.1235 2.77544 24.7022 2.82254 24.4816 2.85955C24.2609 2.89655 23.9065 2.97056 23.6959 3.02439C23.4852 3.07822 23.1308 3.18251 22.9102 3.25988C22.6895 3.33389 22.208 3.54584 21.8403 3.73087C21.4725 3.91253 20.991 4.18166 20.7704 4.32632C20.5497 4.47435 20.212 4.71993 20.0181 4.87468C19.8242 5.0328 19.5099 5.31876 19.316 5.51388C19.1221 5.709 18.8379 6.02523 18.6841 6.22035C18.527 6.41547 18.2929 6.73844 18.1592 6.94365C18.0255 7.14886 17.8416 7.45837 17.7446 7.63331C17.651 7.80824 17.4905 8.14129 17.3869 8.37342C17.2832 8.60555 17.1361 8.99243 17.0592 9.23129C16.979 9.47014 16.8787 9.84357 16.8319 10.0555C16.7851 10.2675 16.7215 10.6072 16.6948 10.8124C16.6647 11.0177 16.6346 11.3944 16.6212 11.6535C16.6112 11.9125 16.6179 12.4138 16.6379 12.7637C16.658 13.1236 16.7015 13.5576 16.7416 13.7561C16.7817 13.9512 16.8586 14.2843 16.9121 14.4962C16.9689 14.7082 17.0826 15.0715 17.1629 15.3036C17.2464 15.5357 17.4337 15.9664 17.5774 16.2624C17.7212 16.5585 17.9753 17.0059 18.1391 17.2548C18.303 17.5038 18.5604 17.8604 18.9817 18.3818V21.6955L18.8279 21.5879C18.7409 21.5273 18.5637 21.386 18.4333 21.275C18.2996 21.164 18.0255 20.9184 17.8248 20.73C17.6242 20.5416 17.2932 20.2019 17.086 19.9731C16.8787 19.7443 16.6179 19.4382 16.5042 19.2902C16.3905 19.1421 16.1598 18.8091 15.9893 18.55C15.8188 18.291 15.5714 17.8806 15.441 17.6417C15.3106 17.4029 15.12 17.0059 15.0164 16.767C14.9127 16.5282 14.7489 16.0942 14.652 15.8082C14.555 15.5223 14.4246 15.0749 14.3577 14.8158C14.2909 14.5568 14.2207 14.254 14.2039 14.143C14.1839 14.032 14.1304 13.6484 14.0836 13.2918C14.0167 12.7738 14 12.5013 14 11.9159C14 11.4045 14.0201 11.0177 14.0635 10.6442C14.1003 10.3482 14.1438 9.96804 14.1672 9.80319C14.1872 9.63835 14.2274 9.34903 14.2574 9.164C14.2842 8.97897 14.3511 8.69638 14.4046 8.53154C14.458 8.37006 14.5216 8.20521 14.5483 8.16148C14.5751 8.12111 14.6821 7.8688 14.7857 7.59966C14.8893 7.33053 15.0766 6.89992 15.2036 6.64087C15.3273 6.38183 15.548 5.97477 15.6951 5.73255C15.8389 5.49033 16.0896 5.1169 16.2501 4.89823C16.4106 4.68293 16.6981 4.32632 16.8854 4.10765C17.0759 3.89235 17.3969 3.55593 17.5975 3.36417C17.7981 3.17241 18.1425 2.86964 18.3631 2.69134C18.5838 2.51304 18.9449 2.2439 19.1656 2.09588C19.3862 1.94449 19.764 1.71236 20.0014 1.5778C20.2388 1.44323 20.64 1.23802 20.8874 1.12363C21.1348 1.00925 21.5427 0.837679 21.7901 0.743482C22.0375 0.652649 22.4655 0.514718 22.743 0.440706C23.0171 0.363331 23.395 0.272498 23.5788 0.232128C23.7627 0.195122 24.1539 0.127839 24.4481 0.0807401C24.8895 0.0168209 25.1235 0.00336417 25.7688 0ZM25.8691 3.33053C25.9159 3.33053 26.0964 3.34399 26.2703 3.36081C26.4441 3.38099 26.6715 3.42136 26.7718 3.45164C26.8721 3.47855 27.0393 3.54584 27.1396 3.5963C27.2399 3.64676 27.397 3.74769 27.4906 3.81497C27.5809 3.88562 27.7247 4.02355 27.8082 4.12111C27.8918 4.21867 28.0088 4.38688 28.0657 4.49453C28.1259 4.60219 28.2128 4.78722 28.2596 4.90833C28.3031 5.02944 28.3766 5.26493 28.4167 5.42977C28.4803 5.69218 28.4936 5.82338 28.4936 6.38856C28.4936 6.91337 28.4803 7.0984 28.4301 7.31371C28.3967 7.46173 28.3231 7.71068 28.2663 7.8688C28.2094 8.02691 28.0924 8.26241 28.0055 8.39024C27.9219 8.52145 27.738 8.75357 27.5976 8.91169C27.4538 9.06981 27.3402 9.22792 27.3402 9.26493C27.3402 9.30193 27.3703 9.38267 27.407 9.44323C27.4438 9.50378 27.5341 9.5778 27.6143 9.6148C27.6946 9.65181 28.0122 9.75946 28.3265 9.85366C28.6675 9.95795 29.0353 10.0959 29.2459 10.2002C29.4398 10.2944 29.7474 10.476 29.9313 10.5971C30.1152 10.7216 30.386 10.9336 30.5298 11.0715C30.6769 11.2061 30.8909 11.4382 31.0079 11.5862C31.1349 11.7443 31.2987 12.0067 31.4024 12.2254C31.5027 12.4306 31.6164 12.693 31.7334 13.0328L31.7702 22.513L31.6531 22.5904C31.5896 22.6341 31.3255 22.7653 31.0681 22.8831C30.8106 23.0008 30.4127 23.169 30.1821 23.2532C29.9514 23.3406 29.6137 23.455 29.4298 23.5088C29.2459 23.5627 28.9751 23.64 28.828 23.677C28.6809 23.714 28.4468 23.7679 28.3097 23.7948C28.1727 23.8217 27.8049 23.8789 27.4906 23.9226C27.0092 23.9865 26.7785 24 26.0028 24C25.2271 24 24.9964 23.9865 24.515 23.9226C24.2007 23.8789 23.8329 23.8217 23.6959 23.7948C23.5588 23.7679 23.2478 23.6939 23.0105 23.6299C22.7731 23.5694 22.4421 23.4718 22.2749 23.418C22.1077 23.3642 21.7868 23.2431 21.5561 23.1489C21.3254 23.058 20.9509 22.8932 20.7202 22.7822C20.4895 22.6745 20.2722 22.5534 20.2354 22.5198C20.1686 22.4525 20.1686 22.4188 20.1853 17.894C20.202 13.8368 20.212 13.3087 20.2588 13.1001C20.2889 12.9689 20.3491 12.767 20.3959 12.6459C20.4394 12.5248 20.5263 12.3297 20.5865 12.2086C20.6467 12.0875 20.7637 11.8856 20.8506 11.7544C20.9342 11.6232 21.1549 11.3675 21.3388 11.1825C21.5561 10.9638 21.8102 10.7553 22.0576 10.587C22.2682 10.4458 22.5624 10.2742 22.7096 10.2069C22.8567 10.1396 23.3013 9.97477 23.6959 9.84693C24.311 9.64172 24.4314 9.59125 24.5217 9.49369C24.5919 9.42304 24.632 9.34903 24.632 9.28848C24.632 9.22119 24.5618 9.12027 24.3779 8.91169C24.2375 8.75357 24.077 8.55845 24.0202 8.47435C23.9633 8.39024 23.8597 8.20185 23.7928 8.05383C23.7226 7.9058 23.6357 7.66358 23.5989 7.51556C23.5621 7.36754 23.5153 7.10177 23.4953 6.92683C23.4785 6.75189 23.4618 6.47939 23.4618 6.32128C23.4618 6.16316 23.4852 5.89739 23.512 5.73255C23.5387 5.5677 23.5822 5.3524 23.6056 5.26156C23.6323 5.16737 23.6892 4.9857 23.7393 4.85786C23.7861 4.73002 23.8898 4.52481 23.9667 4.4037C24.0436 4.28259 24.184 4.10765 24.2776 4.01346C24.3712 3.91926 24.5317 3.78806 24.632 3.72414C24.7323 3.65685 24.9095 3.56602 25.0232 3.51556C25.1402 3.46846 25.3575 3.40791 25.508 3.38099C25.6618 3.35408 25.8223 3.33389 25.8691 3.33053ZM24.8995 12.9319C24.8025 13.1909 24.6588 13.5711 24.5819 13.7729C24.5016 13.9781 23.9031 15.5425 23.2512 17.2548C22.5992 18.9672 22.0308 20.4508 21.9941 20.5517C21.9539 20.6526 21.9239 20.7704 21.9239 20.8141C21.9239 20.8545 21.964 20.9184 22.0141 20.9554C22.1011 21.0193 22.1545 21.0261 22.733 21.0227C23.084 21.0227 23.3916 21.0093 23.4284 20.9891C23.4652 20.9689 23.5253 20.8713 23.5655 20.7637C23.6056 20.656 23.7861 20.1514 23.97 19.6434C24.1539 19.1354 24.3177 18.6779 24.3344 18.6274L24.3645 18.5332H27.4739C27.611 18.91 27.8149 19.4449 28.0122 19.963C28.2629 20.6123 28.4 20.9251 28.4502 20.9655C28.517 21.0193 28.604 21.0261 29.1957 21.0261C29.8143 21.0261 29.8711 21.0193 29.9547 20.9554C30.0082 20.9184 30.0483 20.8545 30.0483 20.8141C30.0483 20.7704 29.2894 18.8663 28.3599 16.582C27.1763 13.6686 26.6481 12.4104 26.5979 12.3667C26.5311 12.3129 26.4475 12.3061 25.8791 12.3095C25.2606 12.3095 25.2338 12.3129 25.1569 12.3869C25.1034 12.434 25.0098 12.6358 24.8995 12.9319ZM25.9025 14.3785C25.9159 14.3987 26.1466 15.0042 26.414 15.7241C26.6815 16.4441 26.9089 17.0631 26.9189 17.0967C26.939 17.1505 26.8754 17.1539 25.9025 17.1539C24.9296 17.1539 24.866 17.1505 24.8861 17.0967C24.8961 17.0631 25.0834 16.5585 25.3007 15.9764C25.5147 15.3944 25.7353 14.7889 25.7855 14.6308C25.8356 14.4727 25.8858 14.3583 25.9025 14.3785Z" fill="currentColor"/>
</svg>
