<svg width="24" height="37" viewBox="0 0 24 37" fill="none" xmlns="http://www.w3.org/2000/svg">
<path d="M3.092 35C3.004 35 2.96 34.956 2.96 34.868V27.272C2.96 27.184 3.004 27.14 3.092 27.14H7.508C7.588 27.14 7.628 27.184 7.628 27.272V28.088C7.628 28.176 7.588 28.22 7.508 28.22H4.172V30.5H7.22C7.3 30.5 7.34 30.54 7.34 30.62V31.4C7.34 31.488 7.3 31.532 7.22 31.532H4.172V33.92H7.508C7.588 33.92 7.628 33.964 7.628 34.052V34.868C7.628 34.956 7.588 35 7.508 35H3.092ZM10.2241 35.144C9.66413 35.144 9.23613 34.964 8.94013 34.604C8.64413 34.236 8.49613 33.688 8.49613 32.96V31.4C8.49613 30.616 8.68413 30.016 9.06013 29.6C9.44413 29.184 9.97613 28.976 10.6561 28.976C10.9521 28.976 11.2681 29.016 11.6041 29.096C11.9481 29.176 12.2161 29.28 12.4081 29.408L12.4561 30.404C12.2161 30.276 11.9521 30.18 11.6641 30.116C11.3841 30.044 11.1361 30.008 10.9201 30.008C10.5121 30.008 10.2041 30.136 9.99613 30.392C9.79613 30.64 9.69613 31.016 9.69613 31.52V32.924C9.69613 33.316 9.77213 33.612 9.92413 33.812C10.0761 34.004 10.3041 34.1 10.6081 34.1C10.8001 34.1 10.9881 34.064 11.1721 33.992C11.3561 33.912 11.5561 33.792 11.7721 33.632C11.9881 33.464 12.2321 33.24 12.5041 32.96L12.5161 33.944C12.2601 34.2 12.0121 34.42 11.7721 34.604C11.5321 34.78 11.2881 34.912 11.0401 35C10.7921 35.096 10.5201 35.144 10.2241 35.144ZM12.6001 35C12.5521 35 12.5161 34.992 12.4921 34.976C12.4681 34.952 12.4521 34.916 12.4441 34.868C12.4281 34.748 12.4081 34.6 12.3841 34.424C12.3601 34.24 12.3521 34.084 12.3601 33.956L12.2761 33.368V26.936C12.2761 26.848 12.3201 26.804 12.4081 26.804H13.3441C13.4321 26.804 13.4761 26.848 13.4761 26.936V33.608C13.4761 33.728 13.4801 33.868 13.4881 34.028C13.4961 34.18 13.5041 34.328 13.5121 34.472C13.5281 34.616 13.5401 34.736 13.5481 34.832C13.5721 34.944 13.5321 35 13.4281 35H12.6001ZM14.7475 35C14.6595 35 14.6155 34.956 14.6155 34.868V29.252C14.6155 29.164 14.6595 29.12 14.7475 29.12H15.6835C15.7715 29.12 15.8155 29.164 15.8155 29.252V34.868C15.8155 34.956 15.7715 35 15.6835 35H14.7475ZM15.2155 28.196C14.9675 28.196 14.7835 28.132 14.6635 28.004C14.5435 27.868 14.4835 27.696 14.4835 27.488V27.344C14.4835 27.128 14.5435 26.956 14.6635 26.828C14.7835 26.7 14.9675 26.636 15.2155 26.636C15.4715 26.636 15.6555 26.7 15.7675 26.828C15.8875 26.956 15.9475 27.128 15.9475 27.344V27.488C15.9475 27.696 15.8875 27.868 15.7675 28.004C15.6555 28.132 15.4715 28.196 15.2155 28.196ZM19.1423 35.144C18.7023 35.144 18.3543 35.076 18.0983 34.94C17.8423 34.796 17.6543 34.58 17.5343 34.292C17.4223 33.996 17.3663 33.628 17.3663 33.188V30.14H16.4543C16.3743 30.14 16.3343 30.096 16.3343 30.008V29.252C16.3343 29.164 16.3743 29.12 16.4543 29.12H17.4023L17.5463 27.68C17.5543 27.6 17.6023 27.56 17.6903 27.56H18.4223C18.5103 27.56 18.5543 27.6 18.5543 27.68L18.5663 29.12H20.2823C20.3703 29.12 20.4143 29.164 20.4143 29.252V30.008C20.4143 30.096 20.3703 30.14 20.2823 30.14H18.5663V33.14C18.5663 33.492 18.6263 33.744 18.7463 33.896C18.8743 34.04 19.0903 34.112 19.3943 34.112C19.5463 34.112 19.6983 34.096 19.8503 34.064C20.0103 34.024 20.1503 33.976 20.2703 33.92C20.3183 33.904 20.3543 33.908 20.3783 33.932C20.4103 33.948 20.4263 33.976 20.4263 34.016V34.796C20.4263 34.868 20.3943 34.916 20.3303 34.94C20.1783 34.996 20.0023 35.044 19.8023 35.084C19.6103 35.124 19.3903 35.144 19.1423 35.144Z" fill="currentColor"/>
<g clip-path="url(#clip0_407_18)">
<path d="M21.2068 0C21.4157 0 22.147 0.521739 22.7738 1.14783C24.1319 2.50435 24.3408 3.23478 23.5051 4.06957L22.9827 4.48696L21.3112 2.81739L19.6398 1.14783L20.2666 0.521739C20.58 0.208696 21.1023 0 21.2068 0ZM10.5512 0.730435H18.0728L17.1326 1.56522L16.2968 2.50435H9.71542H3.13401L2.40274 3.13043L1.67147 3.75652L1.567 11.8957C1.567 19.4087 1.567 20.1391 1.98487 20.8696C2.61167 22.2261 2.71614 22.2261 11.3869 22.2261C19.8487 22.2261 20.371 22.1217 20.8934 21.0783C20.9978 20.8696 21.1023 18.3652 21.1023 14.713V8.66087L22.0425 7.82609L22.8783 6.88696V14.1913L22.7738 21.4957L22.147 22.3304C20.8934 23.8957 20.9978 23.8957 12.0137 24C3.23847 24 2.50721 24 1.35807 22.9565C0 21.8087 0 21.913 0 12.313C0 5.21739 0.104467 3.44348 0.313401 3.02609C0.731268 2.1913 1.77594 1.25217 2.50721 0.93913C2.82061 0.834783 6.16355 0.730435 10.5512 0.730435ZM18.9085 2.08696C18.9085 2.08696 19.7442 2.81739 20.58 3.65217L22.2514 5.32174L16.6102 10.9565L11.0735 16.5913L9.40202 14.8174L7.73055 13.1478L13.2673 7.61739C16.2968 4.48696 18.804 2.08696 18.9085 2.08696ZM6.99928 14.087L8.56629 15.5478C9.40202 16.3826 10.1333 17.113 10.1333 17.2174C10.1333 17.3217 6.47695 18.1565 6.37248 18.0522C6.26801 18.0522 6.47695 17.113 6.68588 16.0696L6.99928 14.087Z" fill="currentColor"/>
</g>
<defs>
<clipPath id="clip0_407_18">
<rect width="24" height="24" fill="white"/>
</clipPath>
</defs>
</svg>
