<svg width="30" height="37" viewBox="0 0 30 37" fill="none" xmlns="http://www.w3.org/2000/svg">
<path d="M20.5271 22H18.603H10.397H8.47291C6.55488 22 5 20.4607 5 18.5618V9.84736C5.00739 9.09967 5.36226 8.39702 5.96203 7.94256L12.5134 2.6853C13.6662 1.77157 15.3049 1.77157 16.4577 2.6853L23.038 7.93303C23.6355 8.38935 23.9898 9.09083 24 9.83784V18.5618C24 20.4607 22.4451 22 20.5271 22Z" stroke="currentColor" stroke-width="2" stroke-linecap="round" stroke-linejoin="round"/>
<path d="M1.092 35C1.004 35 0.96 34.956 0.96 34.868V27.272C0.96 27.184 1.004 27.14 1.092 27.14H2.04C2.128 27.14 2.172 27.184 2.172 27.272V30.44H5.796V27.272C5.796 27.184 5.84 27.14 5.928 27.14H6.888C6.968 27.14 7.008 27.184 7.008 27.272V34.868C7.008 34.956 6.968 35 6.888 35H5.928C5.84 35 5.796 34.956 5.796 34.868V31.496H2.172V34.868C2.172 34.956 2.128 35 2.04 35H1.092ZM10.6688 35.144C9.84475 35.144 9.21275 34.944 8.77275 34.544C8.33275 34.144 8.11275 33.54 8.11275 32.732V31.388C8.11275 30.58 8.32875 29.976 8.76075 29.576C9.20075 29.176 9.83675 28.976 10.6688 28.976C11.4928 28.976 12.1208 29.176 12.5528 29.576C12.9928 29.976 13.2128 30.58 13.2128 31.388V32.732C13.2128 33.54 12.9968 34.144 12.5648 34.544C12.1328 34.944 11.5008 35.144 10.6688 35.144ZM10.6688 34.1C11.1408 34.1 11.4808 33.98 11.6888 33.74C11.9048 33.5 12.0128 33.128 12.0128 32.624V31.496C12.0128 31 11.9048 30.632 11.6888 30.392C11.4808 30.144 11.1408 30.02 10.6688 30.02C10.1888 30.02 9.84075 30.144 9.62475 30.392C9.41675 30.632 9.31275 31 9.31275 31.496V32.624C9.31275 33.128 9.41675 33.5 9.62475 33.74C9.84075 33.98 10.1888 34.1 10.6688 34.1ZM14.3295 35C14.2415 35 14.1975 34.956 14.1975 34.868V30.608C14.1975 30.384 14.1895 30.156 14.1735 29.924C14.1655 29.684 14.1455 29.468 14.1135 29.276C14.0975 29.172 14.1455 29.12 14.2575 29.12H15.0975C15.1455 29.12 15.1775 29.128 15.1935 29.144C15.2095 29.152 15.2215 29.176 15.2295 29.216C15.2455 29.328 15.2655 29.452 15.2895 29.588C15.3135 29.724 15.3295 29.864 15.3375 30.008C15.6815 29.664 16.0095 29.408 16.3215 29.24C16.6415 29.064 16.9935 28.976 17.3775 28.976C17.7855 28.976 18.1135 29.068 18.3615 29.252C18.6095 29.436 18.7855 29.708 18.8895 30.068C19.2415 29.7 19.5815 29.428 19.9095 29.252C20.2375 29.068 20.5975 28.976 20.9895 28.976C21.5335 28.976 21.9415 29.144 22.2135 29.48C22.4935 29.808 22.6335 30.3 22.6335 30.956V34.868C22.6335 34.956 22.5895 35 22.5015 35H21.5655C21.4775 35 21.4335 34.956 21.4335 34.868V31.1C21.4335 30.74 21.3655 30.472 21.2295 30.296C21.1015 30.12 20.8975 30.032 20.6175 30.032C20.3775 30.032 20.1295 30.108 19.8735 30.26C19.6255 30.404 19.3375 30.632 19.0095 30.944V34.868C19.0095 34.956 18.9695 35 18.8895 35H17.9415C17.8535 35 17.8095 34.956 17.8095 34.868V31.1C17.8095 30.74 17.7455 30.472 17.6175 30.296C17.4895 30.12 17.2855 30.032 17.0055 30.032C16.7575 30.032 16.5055 30.108 16.2495 30.26C16.0015 30.404 15.7175 30.632 15.3975 30.944V34.868C15.3975 34.956 15.3535 35 15.2655 35H14.3295ZM26.0988 35.144C25.2828 35.144 24.6628 34.96 24.2388 34.592C23.8228 34.224 23.6148 33.676 23.6148 32.948V31.352C23.6148 30.576 23.8228 29.988 24.2388 29.588C24.6548 29.18 25.2708 28.976 26.0868 28.976C26.8948 28.976 27.5068 29.172 27.9228 29.564C28.3388 29.956 28.5468 30.528 28.5468 31.28V32.216C28.5468 32.304 28.5068 32.348 28.4268 32.348H24.8148V32.732C24.8148 33.22 24.9188 33.576 25.1268 33.8C25.3348 34.024 25.6708 34.136 26.1348 34.136C26.4868 34.136 26.7588 34.08 26.9508 33.968C27.1428 33.856 27.2388 33.684 27.2388 33.452C27.2388 33.364 27.2868 33.32 27.3828 33.32H28.3068C28.3788 33.32 28.4228 33.36 28.4388 33.44C28.4708 33.976 28.2788 34.396 27.8628 34.7C27.4468 34.996 26.8588 35.144 26.0988 35.144ZM24.8148 31.436H27.3588V31.376C27.3588 30.896 27.2548 30.544 27.0468 30.32C26.8388 30.096 26.5228 29.984 26.0988 29.984C25.6668 29.984 25.3428 30.1 25.1268 30.332C24.9188 30.564 24.8148 30.912 24.8148 31.376V31.436Z" fill="currentColor"/>
</svg>
