<svg version="1.2" xmlns="http://www.w3.org/2000/svg" viewBox="0 0 31 38" width="31" height="38"><title>Nouveau projet</title><style>.s0 { fill: currentColor }.s1 { fill: none;stroke: currentColor;stroke-linecap: round;stroke-linejoin: round;stroke-width: 2 } </style><path id="Layer" fill-rule="evenodd" class="s0" d="m6.1 29.7h1.3v8.3h-1.3v-3.5h-3.7v3.5h-1.3v-8.3h1.3v3.6h3.7zm7.2 7.6q-0.9 0.8-2.1 0.8q-1.2 0-2.1-0.8q-0.8-0.8-0.8-2.1q0-1.3 0.8-2.1q0.9-0.8 2.1-0.8q1.2 0 2.1 0.8q0.9 0.8 0.9 2.1q0 1.3-0.9 2.1zm-2.1-0.4q0.7 0 1.2-0.5q0.5-0.5 0.5-1.2q0-0.8-0.5-1.3q-0.5-0.4-1.2-0.4q-0.7 0-1.2 0.4q-0.5 0.5-0.5 1.3q0 0.7 0.5 1.2q0.5 0.5 1.2 0.5zm10.2-3.4q-0.6 0-1 0.4q-0.4 0.4-0.4 1.1v3h-1.2v-3.2q0-0.6-0.3-1q-0.4-0.3-0.9-0.3q-0.6 0-1 0.3q-0.4 0.4-0.4 1.2v3h-1.2v-5.6h1.2v0.8q0.3-0.5 0.8-0.7q0.5-0.2 1-0.2q1.3 0 1.7 1.1q0.7-1.1 1.9-1.1q1.1 0 1.6 0.6q0.6 0.6 0.6 1.8v3.3h-1.2v-3.1q0-0.7-0.4-1.1q-0.3-0.3-0.8-0.3zm8.8 1.7q0 0.3 0 0.4h-4.4q0.1 0.7 0.5 1q0.5 0.4 1.2 0.4q0.5 0 0.9-0.2q0.4-0.2 0.6-0.6q0.2 0.1 0.6 0.3q0.3 0.1 0.4 0.2q-0.3 0.7-1 1q-0.7 0.4-1.6 0.4q-1.2 0-2-0.8q-0.8-0.8-0.8-2.1q0-1.4 0.8-2.1q0.8-0.8 2-0.8q1.3 0 2.1 0.8q0.7 0.7 0.7 2.1zm-4.4-0.5h3.2q0-0.6-0.5-1q-0.4-0.4-1.1-0.4q-0.6 0-1.1 0.4q-0.4 0.4-0.5 1z" /><path id="Layer" class="s1" d="m21 21h-1.9h-8.2h-1.9c-1.9 0-3.5-1.5-3.5-3.4v-8.8c0-0.7 0.4-1.4 1-1.9l6.5-5.2c1.2-0.9 2.8-0.9 4 0l6.5 5.2c0.6 0.5 1 1.2 1 1.9v8.8c0 1.9-1.6 3.4-3.5 3.4z" /></svg>