<svg width="35" height="37" viewBox="0 0 35 37" fill="none" xmlns="http://www.w3.org/2000/svg">
<g clip-path="url(#clip0_405_14)">
<path fill-rule="evenodd" clip-rule="evenodd" d="M16.7688 0C17.2001 0 17.735 0.0134567 17.9557 0.0302775C18.1763 0.0504626 18.5441 0.097561 18.7748 0.134567C19.0055 0.171573 19.4335 0.255677 19.7277 0.32296C20.0219 0.38688 20.5033 0.521447 20.7976 0.619008C21.0918 0.716569 21.513 0.874685 21.7337 0.968881C21.9544 1.06644 22.3322 1.24811 22.5696 1.37258C22.8069 1.49706 23.1313 1.67536 23.2884 1.76955C23.4455 1.86375 23.7498 2.0656 23.9638 2.22035C24.1777 2.37511 24.5154 2.63751 24.716 2.80572C24.9133 2.97056 25.2978 3.32717 25.5652 3.5963C25.8327 3.86543 26.1771 4.23549 26.3275 4.42052C26.4813 4.60555 26.7087 4.9016 26.8324 5.07653C26.9594 5.25147 27.1534 5.54752 27.2704 5.73255C27.3874 5.91758 27.6047 6.31119 27.7552 6.60723C27.909 6.90328 28.0995 7.30362 28.1798 7.49874C28.26 7.69386 28.4038 8.08747 28.4974 8.37342C28.591 8.65938 28.698 9.01598 28.7348 9.164C28.7716 9.31203 28.8251 9.54752 28.8552 9.68545C28.8852 9.82338 28.9254 10.143 28.9421 10.3919C28.9621 10.6409 28.9855 11.2262 28.9956 11.6871C29.0056 12.2254 28.9989 12.6627 28.9722 12.8982C28.9521 13.1034 28.9053 13.4735 28.8652 13.7225C28.8284 13.9714 28.7615 14.3415 28.7181 14.5467C28.6713 14.7519 28.5843 15.0984 28.5175 15.3204C28.4539 15.5425 28.3236 15.9294 28.2299 16.1783C28.1363 16.4272 27.9625 16.8377 27.8454 17.0866C27.7284 17.3356 27.5546 17.6754 27.461 17.8436C27.3673 18.0118 27.15 18.3583 26.9795 18.6173C26.8123 18.8764 26.5382 19.2532 26.3743 19.4584C26.2139 19.6602 25.8762 20.037 25.6288 20.296C25.3814 20.5517 24.9969 20.9151 24.7795 21.1034C24.5622 21.2885 24.3048 21.5004 24.2112 21.5711C24.1176 21.6384 24.0206 21.6955 24.0005 21.6955C23.9671 21.6955 23.9571 21.3423 23.9571 18.3987L24.2179 18.069C24.3583 17.8907 24.5756 17.598 24.696 17.423C24.8197 17.2481 25.0136 16.9386 25.1306 16.7334C25.2443 16.5282 25.3981 16.2355 25.4716 16.0774C25.5452 15.9193 25.6589 15.6468 25.7291 15.4718C25.7959 15.2969 25.8996 14.9941 25.9564 14.799C26.0133 14.6039 26.0968 14.2708 26.1437 14.0589C26.1871 13.8469 26.2506 13.4735 26.2841 13.2347C26.3175 12.9622 26.3409 12.5652 26.3409 12.1749C26.3409 11.8318 26.3242 11.3776 26.3008 11.1657C26.2774 10.9537 26.2239 10.5904 26.1771 10.3583C26.1336 10.1262 26.0534 9.77965 25.9965 9.58452C25.9431 9.3894 25.8361 9.06644 25.7592 8.86123C25.6856 8.65601 25.5118 8.2624 25.3747 7.98654C25.2409 7.70732 25.0303 7.3238 24.9099 7.12868C24.7862 6.93356 24.5856 6.63751 24.4586 6.47267C24.3349 6.30782 24.0674 5.98822 23.8668 5.76619C23.6662 5.54415 23.3519 5.23129 23.168 5.07317C22.9875 4.91169 22.7033 4.68629 22.5361 4.56518C22.369 4.44743 22.0848 4.25231 21.9009 4.13793C21.717 4.02019 21.386 3.83852 21.1653 3.73087C20.9447 3.62321 20.6103 3.47182 20.4198 3.39781C20.2325 3.32044 19.9082 3.20942 19.7043 3.1455C19.497 3.08158 19.1459 2.99075 18.9253 2.94365C18.7046 2.89655 18.3368 2.836 18.1061 2.80908C17.8754 2.78217 17.521 2.74853 17.3204 2.73844C17.1198 2.72498 16.7119 2.73171 16.4177 2.75189C16.1235 2.77544 15.7022 2.82254 15.4816 2.85955C15.2609 2.89655 14.9065 2.97056 14.6959 3.02439C14.4852 3.07822 14.1308 3.18251 13.9102 3.25988C13.6895 3.33389 13.208 3.54584 12.8403 3.73087C12.4725 3.91253 11.991 4.18166 11.7704 4.32632C11.5497 4.47435 11.212 4.71993 11.0181 4.87468C10.8242 5.0328 10.5099 5.31875 10.316 5.51388C10.1221 5.709 9.8379 6.02523 9.6841 6.22035C9.52696 6.41547 9.29292 6.73844 9.15919 6.94365C9.02545 7.14886 8.84157 7.45837 8.74461 7.6333C8.65099 7.80824 8.49051 8.14129 8.38686 8.37342C8.28322 8.60555 8.13611 8.99243 8.05921 9.23129C7.97897 9.47014 7.87867 9.84357 7.83186 10.0555C7.78505 10.2675 7.72153 10.6072 7.69478 10.8124C7.66469 11.0177 7.6346 11.3944 7.62122 11.6535C7.61119 11.9125 7.61788 12.4138 7.63794 12.7637C7.658 13.1236 7.70147 13.5576 7.74159 13.7561C7.78171 13.9512 7.85861 14.2843 7.9121 14.4962C7.96894 14.7082 8.08261 15.0715 8.16286 15.3036C8.24644 15.5357 8.43367 15.9664 8.57744 16.2624C8.7212 16.5585 8.9753 17.0059 9.13913 17.2548C9.30295 17.5038 9.5604 17.8604 9.98166 18.3818V21.6955L9.82787 21.5879C9.74094 21.5273 9.56374 21.386 9.43335 21.275C9.29961 21.164 9.02545 20.9184 8.82485 20.73C8.62424 20.5416 8.29325 20.2019 8.08596 19.9731C7.87867 19.7443 7.61788 19.4382 7.50421 19.2902C7.39053 19.1421 7.15984 18.8091 6.98932 18.55C6.81881 18.291 6.5714 17.8806 6.44101 17.6417C6.31061 17.4029 6.12004 17.0059 6.01639 16.767C5.91275 16.5282 5.74892 16.0942 5.65196 15.8082C5.555 15.5223 5.42461 15.0749 5.35774 14.8158C5.29088 14.5568 5.22066 14.254 5.20395 14.143C5.18389 14.032 5.13039 13.6484 5.08358 13.2918C5.01672 12.7738 5 12.5013 5 11.9159C5 11.4045 5.02006 11.0177 5.06352 10.6442C5.1003 10.3482 5.14377 9.96804 5.16717 9.8032C5.18723 9.63835 5.22735 9.34903 5.25744 9.164C5.28419 8.97897 5.35106 8.69638 5.40455 8.53154C5.45805 8.37006 5.52157 8.20521 5.54832 8.16148C5.57506 8.12111 5.68205 7.8688 5.7857 7.59966C5.88934 7.33053 6.07657 6.89992 6.20362 6.64087C6.32733 6.38183 6.54799 5.97477 6.6951 5.73255C6.83887 5.49033 7.08962 5.1169 7.25011 4.89823C7.41059 4.68293 7.69812 4.32632 7.88535 4.10765C8.07593 3.89235 8.39689 3.55593 8.5975 3.36417C8.7981 3.17241 9.14247 2.86964 9.36314 2.69134C9.5838 2.51304 9.94489 2.2439 10.1656 2.09588C10.3862 1.94449 10.764 1.71236 11.0014 1.5778C11.2388 1.44323 11.64 1.23802 11.8874 1.12363C12.1348 1.00925 12.5427 0.837679 12.7901 0.743482C13.0375 0.652649 13.4655 0.514718 13.743 0.440706C14.0171 0.363331 14.395 0.272498 14.5788 0.232128C14.7627 0.195122 15.1539 0.127839 15.4481 0.0807401C15.8895 0.0168209 16.1235 0.00336417 16.7688 0V0ZM16.8691 3.33053C16.9159 3.33053 17.0964 3.34399 17.2703 3.36081C17.4441 3.38099 17.6715 3.42136 17.7718 3.45164C17.8721 3.47855 18.0393 3.54584 18.1396 3.5963C18.2399 3.64676 18.397 3.74769 18.4906 3.81497C18.5809 3.88562 18.7247 4.02355 18.8082 4.12111C18.8918 4.21867 19.0088 4.38688 19.0657 4.49453C19.1259 4.60219 19.2128 4.78722 19.2596 4.90833C19.3031 5.02944 19.3766 5.26493 19.4167 5.42977C19.4803 5.69218 19.4936 5.82338 19.4936 6.38856C19.4936 6.91337 19.4803 7.0984 19.4301 7.31371C19.3967 7.46173 19.3231 7.71068 19.2663 7.8688C19.2094 8.02691 19.0924 8.2624 19.0055 8.39024C18.9219 8.52145 18.738 8.75357 18.5976 8.91169C18.4538 9.06981 18.3402 9.22792 18.3402 9.26493C18.3402 9.30193 18.3703 9.38267 18.407 9.44323C18.4438 9.50378 18.5341 9.5778 18.6143 9.6148C18.6946 9.65181 19.0122 9.75946 19.3265 9.85366C19.6675 9.95795 20.0353 10.0959 20.2459 10.2002C20.4398 10.2944 20.7474 10.476 20.9313 10.5971C21.1152 10.7216 21.386 10.9336 21.5298 11.0715C21.6769 11.2061 21.8909 11.4382 22.0079 11.5862C22.1349 11.7443 22.2987 12.0067 22.4024 12.2254C22.5027 12.4306 22.6164 12.693 22.7334 13.0328L22.7702 22.513L22.6531 22.5904C22.5896 22.6341 22.3255 22.7653 22.0681 22.8831C21.8106 23.0008 21.4127 23.169 21.1821 23.2532C20.9514 23.3406 20.6137 23.455 20.4298 23.5088C20.2459 23.5627 19.9751 23.64 19.828 23.677C19.6809 23.714 19.4468 23.7679 19.3097 23.7948C19.1727 23.8217 18.8049 23.8789 18.4906 23.9226C18.0092 23.9865 17.7785 24 17.0028 24C16.2271 24 15.9964 23.9865 15.515 23.9226C15.2007 23.8789 14.8329 23.8217 14.6959 23.7948C14.5588 23.7679 14.2478 23.6939 14.0105 23.6299C13.7731 23.5694 13.4421 23.4718 13.2749 23.418C13.1077 23.3642 12.7868 23.2431 12.5561 23.1489C12.3254 23.058 11.9509 22.8932 11.7202 22.7822C11.4895 22.6745 11.2722 22.5534 11.2354 22.5198C11.1686 22.4525 11.1686 22.4188 11.1853 17.894C11.202 13.8368 11.212 13.3087 11.2588 13.1001C11.2889 12.9689 11.3491 12.767 11.3959 12.6459C11.4394 12.5248 11.5263 12.3297 11.5865 12.2086C11.6467 12.0875 11.7637 11.8856 11.8506 11.7544C11.9342 11.6232 12.1549 11.3675 12.3388 11.1825C12.5561 10.9638 12.8102 10.7553 13.0576 10.587C13.2682 10.4458 13.5624 10.2742 13.7096 10.2069C13.8567 10.1396 14.3013 9.97477 14.6959 9.84693C15.311 9.64171 15.4314 9.59125 15.5217 9.49369C15.5919 9.42304 15.632 9.34903 15.632 9.28848C15.632 9.22119 15.5618 9.12027 15.3779 8.91169C15.2375 8.75357 15.077 8.55845 15.0202 8.47435C14.9633 8.39024 14.8597 8.20185 14.7928 8.05383C14.7226 7.9058 14.6357 7.66358 14.5989 7.51556C14.5621 7.36754 14.5153 7.10177 14.4953 6.92683C14.4785 6.75189 14.4618 6.47939 14.4618 6.32128C14.4618 6.16316 14.4852 5.89739 14.512 5.73255C14.5387 5.5677 14.5822 5.3524 14.6056 5.26156C14.6323 5.16737 14.6892 4.9857 14.7393 4.85786C14.7861 4.73002 14.8898 4.52481 14.9667 4.4037C15.0436 4.28259 15.184 4.10765 15.2776 4.01346C15.3712 3.91926 15.5317 3.78806 15.632 3.72414C15.7323 3.65685 15.9095 3.56602 16.0232 3.51556C16.1402 3.46846 16.3575 3.40791 16.508 3.38099C16.6618 3.35408 16.8223 3.33389 16.8691 3.33053V3.33053ZM15.9663 12.4037C15.8092 12.4407 15.5685 12.5147 15.4314 12.5652C15.2943 12.6123 15.0837 12.7031 14.9633 12.7637C14.843 12.8242 14.6123 12.9655 14.4451 13.0765C14.2779 13.1876 14.0171 13.3961 13.8633 13.5408C13.7096 13.6888 13.4922 13.9277 13.3819 14.0757C13.2749 14.2237 13.1245 14.4424 13.0542 14.5635C12.984 14.6846 12.8637 14.9235 12.7901 15.095C12.7166 15.2632 12.6163 15.5593 12.5695 15.7511C12.5226 15.9394 12.4758 16.2119 12.4625 16.3566C12.4491 16.4979 12.429 16.6156 12.4123 16.6156C12.3989 16.6156 12.3889 16.73 12.3889 16.868C12.3889 17.0126 12.4023 17.1203 12.4223 17.1203C12.4424 17.1203 12.4558 17.1876 12.4558 17.2717C12.4558 17.3558 12.4859 17.5711 12.5226 17.7527C12.5561 17.931 12.633 18.2136 12.6932 18.3818C12.75 18.55 12.847 18.7822 12.9071 18.9033C12.9673 19.0244 13.1077 19.2565 13.2181 19.4247C13.3284 19.5929 13.5223 19.8385 13.6494 19.9765C13.7731 20.1144 13.9971 20.3196 14.1442 20.4373C14.2913 20.5517 14.5387 20.7233 14.6959 20.8141C14.853 20.9083 15.1071 21.0362 15.2642 21.1001C15.4214 21.1674 15.7056 21.2616 15.8995 21.3087C16.187 21.3827 16.3542 21.4029 16.8189 21.4163C17.2636 21.4298 17.4608 21.423 17.7216 21.3793C17.9055 21.3457 18.1997 21.275 18.3736 21.2178C18.5475 21.1606 18.8116 21.0563 18.9587 20.9823C19.1058 20.9083 19.3298 20.7771 19.4602 20.693C19.5906 20.6123 19.8046 20.4508 19.9417 20.3364C20.0754 20.222 20.2793 20.0269 20.3897 19.8957C20.5 19.7645 20.6605 19.5559 20.7474 19.4247C20.8343 19.2935 20.9781 19.0446 21.065 18.8696C21.152 18.6947 21.2656 18.4222 21.3158 18.2641C21.3659 18.106 21.4361 17.8267 21.4662 17.6417C21.503 17.4399 21.5264 17.1304 21.5264 16.868C21.5264 16.6089 21.503 16.3028 21.4696 16.111C21.4395 15.9361 21.3893 15.7073 21.3593 15.6064C21.3325 15.5055 21.2623 15.307 21.2088 15.169C21.1553 15.0311 21.0383 14.7889 20.948 14.6308C20.8611 14.4727 20.7006 14.2304 20.597 14.0925C20.49 13.9546 20.3362 13.7662 20.2492 13.6787C20.1657 13.5879 19.9751 13.4197 19.828 13.3019C19.6809 13.1876 19.4569 13.0261 19.3265 12.9487C19.1961 12.868 18.9888 12.7536 18.8584 12.6964C18.728 12.6358 18.504 12.5484 18.3569 12.5013C18.2098 12.4542 17.9624 12.3936 17.8052 12.3667C17.6481 12.3364 17.3706 12.3061 17.1867 12.2994C17.0028 12.2893 16.7186 12.296 16.5514 12.3095C16.3843 12.323 16.1235 12.3667 15.9663 12.4037V12.4037ZM17.1365 13.8133C17.2736 13.8234 17.4843 13.8503 17.6046 13.8738C17.725 13.8974 17.9423 13.9647 18.0894 14.0219C18.2365 14.0757 18.4906 14.2136 18.6578 14.3213C18.8383 14.4424 19.0523 14.6207 19.1927 14.7754C19.3231 14.9134 19.497 15.1455 19.5806 15.2935C19.6675 15.4382 19.7745 15.6535 19.8213 15.7746C19.8681 15.8957 19.9316 16.1211 19.9651 16.2792C20.0085 16.5013 20.0152 16.6661 20.0018 17.0025C19.9918 17.2414 19.9584 17.5307 19.9283 17.6417C19.8982 17.7527 19.8012 17.995 19.7143 18.18C19.624 18.365 19.4602 18.6341 19.3465 18.7788C19.2362 18.9201 19.0256 19.132 18.8818 19.2431C18.7414 19.3574 18.4739 19.5223 18.29 19.6131C18.1061 19.7006 17.8654 19.7981 17.7551 19.8284C17.638 19.8621 17.3639 19.8923 17.0864 19.9024C16.6852 19.9159 16.5748 19.9092 16.3241 19.8486C16.1636 19.8082 15.9229 19.7309 15.7891 19.6737C15.6588 19.6165 15.4281 19.492 15.281 19.3911C15.1338 19.2935 14.9165 19.1085 14.7962 18.984C14.6758 18.8562 14.5187 18.6611 14.4484 18.55C14.3749 18.439 14.2646 18.2439 14.2077 18.1127C14.1475 17.9815 14.0673 17.7494 14.0305 17.5913C13.9937 17.4331 13.9536 17.201 13.9402 17.0698C13.9302 16.9352 13.9369 16.6964 13.9603 16.5147C13.9837 16.3398 14.0305 16.0976 14.0673 15.9765C14.1041 15.8553 14.1877 15.6535 14.2512 15.5223C14.3181 15.3911 14.4351 15.196 14.512 15.0849C14.5922 14.9739 14.7594 14.7822 14.8831 14.6611C15.0101 14.5399 15.1873 14.3919 15.281 14.328C15.3712 14.2641 15.5685 14.1564 15.7156 14.0891C15.8627 14.0185 16.08 13.9378 16.2004 13.9075C16.3207 13.8738 16.5214 13.8368 16.6517 13.8234C16.7821 13.8099 16.9995 13.8032 17.1365 13.8133V13.8133ZM16.1837 15.5223C16.0901 15.5761 15.9496 15.6905 15.866 15.778C15.7825 15.8621 15.6755 16.0067 15.6253 16.0976C15.5752 16.1884 15.5116 16.3532 15.4849 16.4643C15.4548 16.5753 15.4314 16.7569 15.4314 16.868C15.4314 16.979 15.4548 17.1539 15.4816 17.2548C15.5083 17.3558 15.5718 17.5206 15.622 17.6215C15.6755 17.7191 15.7992 17.8806 15.8995 17.9781C15.9998 18.0757 16.1803 18.2035 16.3007 18.2607C16.4211 18.3179 16.6217 18.3852 16.752 18.4054C16.9359 18.4357 17.0362 18.4357 17.2201 18.4054C17.3505 18.3818 17.5478 18.3179 17.6615 18.2641C17.7785 18.2069 17.9557 18.0824 18.0593 17.9882C18.173 17.8772 18.2867 17.7258 18.3535 17.5913C18.4137 17.4701 18.4839 17.2582 18.5073 17.1203C18.5441 16.9218 18.5441 16.8175 18.514 16.6325C18.494 16.5013 18.4304 16.3028 18.3736 16.1884C18.3201 16.0706 18.1997 15.8957 18.1095 15.8015C18.0192 15.704 17.852 15.5727 17.735 15.5088C17.618 15.4449 17.4441 15.3743 17.3539 15.3473C17.2602 15.3238 17.0897 15.307 16.9694 15.307C16.849 15.307 16.6618 15.3339 16.5514 15.3642C16.4411 15.3978 16.2739 15.4685 16.1837 15.5223V15.5223Z" fill="currentColor"/>
</g>
<path d="M0.912 35C0.88 35 0.848 34.988 0.816 34.964C0.792 34.94 0.78 34.908 0.78 34.868L0.948 27.272C0.948 27.184 0.992 27.14 1.08 27.14H2.472C2.536 27.14 2.584 27.172 2.616 27.236L4.668 31.796L6.696 27.236C6.728 27.172 6.776 27.14 6.84 27.14H8.244C8.324 27.14 8.364 27.184 8.364 27.272L8.532 34.868C8.532 34.908 8.52 34.94 8.496 34.964C8.48 34.988 8.452 35 8.412 35H7.476C7.396 35 7.356 34.956 7.356 34.868L7.236 30.476C7.228 30.172 7.232 29.868 7.248 29.564C7.264 29.26 7.276 28.956 7.284 28.652H7.248C7.128 28.948 7 29.248 6.864 29.552C6.736 29.856 6.6 30.156 6.456 30.452L4.812 33.968C4.788 34.024 4.74 34.052 4.668 34.052H4.632C4.568 34.052 4.52 34.024 4.488 33.968L2.832 30.404C2.696 30.116 2.564 29.824 2.436 29.528C2.316 29.232 2.196 28.94 2.076 28.652H2.052C2.068 28.94 2.076 29.236 2.076 29.54C2.084 29.844 2.084 30.144 2.076 30.44L1.968 34.868C1.968 34.956 1.924 35 1.836 35H0.912ZM13.0484 35C13.0004 35 12.9644 34.984 12.9404 34.952C12.9244 34.92 12.9084 34.88 12.8924 34.832C12.8844 34.76 12.8644 34.624 12.8324 34.424C12.8084 34.224 12.7924 34.036 12.7844 33.86L12.7244 33.392V31.004C12.7244 30.628 12.6484 30.364 12.4964 30.212C12.3524 30.052 12.0964 29.972 11.7284 29.972C11.3924 29.972 11.1404 30.032 10.9724 30.152C10.8044 30.272 10.7244 30.448 10.7324 30.68C10.7324 30.768 10.6924 30.812 10.6124 30.812H9.68841C9.60041 30.812 9.55241 30.74 9.54441 30.596C9.50441 30.1 9.68441 29.708 10.0844 29.42C10.4844 29.124 11.0444 28.976 11.7644 28.976C12.5004 28.976 13.0444 29.144 13.3964 29.48C13.7484 29.808 13.9244 30.312 13.9244 30.992V33.524C13.9244 33.796 13.9324 34.044 13.9484 34.268C13.9644 34.492 13.9844 34.688 14.0084 34.856C14.0244 34.952 13.9804 35 13.8764 35H13.0484ZM10.7564 35.144C10.2844 35.144 9.92441 35.004 9.67641 34.724C9.42841 34.436 9.30441 34.024 9.30441 33.488C9.30441 33.072 9.38441 32.732 9.54441 32.468C9.70441 32.204 9.96441 32 10.3244 31.856C10.6924 31.712 11.1804 31.616 11.7884 31.568L12.9164 31.472L12.9044 32.288L11.8244 32.384C11.3204 32.424 10.9684 32.516 10.7684 32.66C10.5764 32.804 10.4804 33.044 10.4804 33.38C10.4804 33.636 10.5324 33.828 10.6364 33.956C10.7404 34.084 10.9004 34.148 11.1164 34.148C11.3644 34.148 11.6244 34.064 11.8964 33.896C12.1684 33.728 12.5204 33.42 12.9524 32.972L12.9764 33.896C12.7044 34.184 12.4484 34.42 12.2084 34.604C11.9764 34.788 11.7404 34.924 11.5004 35.012C11.2684 35.1 11.0204 35.144 10.7564 35.144ZM19.0007 35C18.9127 35 18.8687 34.956 18.8687 34.868V31.1C18.8687 30.732 18.7927 30.464 18.6407 30.296C18.4967 30.12 18.2687 30.032 17.9567 30.032C17.6607 30.032 17.3687 30.12 17.0807 30.296C16.7927 30.464 16.4487 30.748 16.0487 31.148L16.0247 30.176C16.2807 29.904 16.5287 29.68 16.7687 29.504C17.0087 29.328 17.2527 29.196 17.5007 29.108C17.7567 29.02 18.0247 28.976 18.3047 28.976C18.8807 28.976 19.3167 29.144 19.6127 29.48C19.9167 29.808 20.0687 30.304 20.0687 30.968V34.868C20.0687 34.956 20.0287 35 19.9487 35H19.0007ZM15.1967 35C15.1087 35 15.0647 34.956 15.0647 34.868V30.608C15.0647 30.384 15.0527 30.148 15.0287 29.9C15.0127 29.644 14.9967 29.44 14.9807 29.288C14.9647 29.176 15.0087 29.12 15.1127 29.12H15.9647C16.0127 29.12 16.0447 29.128 16.0607 29.144C16.0847 29.16 16.1007 29.192 16.1087 29.24C16.1247 29.312 16.1407 29.412 16.1567 29.54C16.1727 29.668 16.1887 29.804 16.2047 29.948C16.2207 30.092 16.2287 30.216 16.2287 30.32L16.2647 30.704V34.868C16.2647 34.956 16.2207 35 16.1327 35H15.1967ZM22.8004 35.144C22.2804 35.144 21.8844 34.976 21.6124 34.64C21.3404 34.296 21.2044 33.8 21.2044 33.152V29.252C21.2044 29.164 21.2484 29.12 21.3364 29.12H22.2724C22.3604 29.12 22.4044 29.164 22.4044 29.252V33.02C22.4044 33.388 22.4684 33.66 22.5964 33.836C22.7244 34.012 22.9244 34.1 23.1964 34.1C23.4844 34.1 23.7684 34.012 24.0484 33.836C24.3364 33.652 24.6804 33.356 25.0804 32.948V33.956C24.8404 34.204 24.5964 34.416 24.3484 34.592C24.1004 34.768 23.8484 34.904 23.5924 35C23.3364 35.096 23.0724 35.144 22.8004 35.144ZM25.1884 35C25.1404 35 25.1044 34.992 25.0804 34.976C25.0564 34.952 25.0404 34.92 25.0324 34.88C25.0084 34.728 24.9884 34.572 24.9724 34.412C24.9564 34.252 24.9444 34.088 24.9364 33.92L24.8524 33.368V29.252C24.8524 29.164 24.8964 29.12 24.9844 29.12H25.9204C26.0084 29.12 26.0524 29.164 26.0524 29.252V33.524C26.0524 33.748 26.0564 33.976 26.0644 34.208C26.0804 34.432 26.1044 34.652 26.1364 34.868C26.1524 34.956 26.1044 35 25.9924 35H25.1884ZM30.6237 35C30.5757 35 30.5397 34.984 30.5157 34.952C30.4997 34.92 30.4837 34.88 30.4677 34.832C30.4597 34.76 30.4397 34.624 30.4077 34.424C30.3837 34.224 30.3677 34.036 30.3597 33.86L30.2997 33.392V31.004C30.2997 30.628 30.2237 30.364 30.0717 30.212C29.9277 30.052 29.6717 29.972 29.3037 29.972C28.9677 29.972 28.7157 30.032 28.5477 30.152C28.3797 30.272 28.2997 30.448 28.3077 30.68C28.3077 30.768 28.2677 30.812 28.1877 30.812H27.2637C27.1757 30.812 27.1277 30.74 27.1197 30.596C27.0797 30.1 27.2597 29.708 27.6597 29.42C28.0597 29.124 28.6197 28.976 29.3397 28.976C30.0757 28.976 30.6197 29.144 30.9717 29.48C31.3237 29.808 31.4997 30.312 31.4997 30.992V33.524C31.4997 33.796 31.5077 34.044 31.5237 34.268C31.5397 34.492 31.5597 34.688 31.5837 34.856C31.5997 34.952 31.5557 35 31.4517 35H30.6237ZM28.3317 35.144C27.8597 35.144 27.4997 35.004 27.2517 34.724C27.0037 34.436 26.8797 34.024 26.8797 33.488C26.8797 33.072 26.9597 32.732 27.1197 32.468C27.2797 32.204 27.5397 32 27.8997 31.856C28.2677 31.712 28.7557 31.616 29.3637 31.568L30.4917 31.472L30.4797 32.288L29.3997 32.384C28.8957 32.424 28.5437 32.516 28.3437 32.66C28.1517 32.804 28.0557 33.044 28.0557 33.38C28.0557 33.636 28.1077 33.828 28.2117 33.956C28.3157 34.084 28.4757 34.148 28.6917 34.148C28.9397 34.148 29.1997 34.064 29.4717 33.896C29.7437 33.728 30.0957 33.42 30.5277 32.972L30.5517 33.896C30.2797 34.184 30.0237 34.42 29.7837 34.604C29.5517 34.788 29.3157 34.924 29.0757 35.012C28.8437 35.1 28.5957 35.144 28.3317 35.144ZM32.772 35C32.684 35 32.64 34.956 32.64 34.868V26.936C32.64 26.848 32.684 26.804 32.772 26.804H33.708C33.796 26.804 33.84 26.848 33.84 26.936V34.868C33.84 34.956 33.796 35 33.708 35H32.772Z" fill="currentColor"/>
<defs>
<clipPath id="clip0_405_14">
<rect width="24" height="24" fill="white" transform="translate(5)"/>
</clipPath>
</defs>
</svg>
