<svg width="24" height="24" viewBox="0 0 24 24" fill="none" xmlns="http://www.w3.org/2000/svg"><path d="M21.2068 0C21.4157 0 22.147 0.521739 22.7738 1.14783C24.1319 2.50435 24.3408 3.23478 23.5051 4.06957L22.9827 4.48696L21.3112 2.81739L19.6398 1.14783L20.2666 0.521739C20.58 0.208696 21.1023 0 21.2068 0ZM10.5512 0.730435H18.0728L17.1326 1.56522L16.2968 2.50435H9.71542H3.13401L2.40274 3.13043L1.67147 3.75652L1.567 11.8957C1.567 19.4087 1.567 20.1391 1.98487 20.8696C2.61167 22.2261 2.71614 22.2261 11.3869 22.2261C19.8487 22.2261 20.371 22.1217 20.8934 21.0783C20.9978 20.8696 21.1023 18.3652 21.1023 14.713V8.66087L22.0425 7.82609L22.8783 6.88696V14.1913L22.7738 21.4957L22.147 22.3304C20.8934 23.8957 20.9978 23.8957 12.0137 24C3.23847 24 2.50721 24 1.35807 22.9565C0 21.8087 0 21.913 0 12.313C0 5.21739 0.104467 3.44348 0.313401 3.02609C0.731268 2.1913 1.77594 1.25217 2.50721 0.93913C2.82061 0.834783 6.16355 0.730435 10.5512 0.730435ZM18.9085 2.08696C18.9085 2.08696 19.7442 2.81739 20.58 3.65217L22.2514 5.32174L16.6102 10.9565L11.0735 16.5913L9.40202 14.8174L7.73055 13.1478L13.2673 7.61739C16.2968 4.48696 18.804 2.08696 18.9085 2.08696ZM6.99928 14.087L8.56629 15.5478C9.40202 16.3826 10.1333 17.113 10.1333 17.2174C10.1333 17.3217 6.47695 18.1565 6.37248 18.0522C6.26801 18.0522 6.47695 17.113 6.68588 16.0696L6.99928 14.087Z" fill="currentColor"/></svg>