 <svg width="21" height="22" viewBox="0 0 21 22" fill="none" xmlns="http://www.w3.org/2000/svg"><path d="M19.5409 6.3C20.0409 7.2 19.7409 8.4 18.8409 8.9C18.5742 9.1 18.3409 9.33333 18.1409 9.6C17.9409 10.1 17.8409 10.6 17.9409 11.1C18.1409 11.6 18.4409 12 18.8409 12.2C19.3409 12.5 19.6409 12.9 19.7409 13.4C19.8409 13.9 19.8409 14.4 19.5409 14.8L18.8409 15.9C18.3409 16.9 17.2409 17.2 16.2409 16.6C15.9742 16.4667 15.6742 16.4 15.3409 16.4C14.8409 16.4 14.3409 16.6 14.0409 16.9C13.6409 17.3 13.4409 17.8 13.4409 18.3C13.4409 19.3 12.6409 20.2 11.5409 20.2H10.2409C9.24087 20.2 8.34087 19.3 8.34087 18.3C8.34087 17.9667 8.2742 17.6667 8.14087 17.4C7.84087 16.9 7.44087 16.6 6.94087 16.5C6.44087 16.4 5.94087 16.4 5.54087 16.7C5.04087 16.9 4.54087 17 4.04087 16.8C3.54087 16.7 3.14087 16.4 2.94087 15.9L2.24087 14.8C1.74087 13.9 2.04087 12.8 2.94087 12.2C3.54087 11.9 3.94087 11.3 3.94087 10.6C3.94087 9.9 3.54087 9.3 2.94087 8.9C2.04087 8.4 1.74087 7.2 2.24087 6.3L2.94087 5.2C3.44087 4.3 4.64087 4 5.54087 4.5C5.80753 4.7 6.10753 4.8 6.44087 4.8C7.54087 4.8 8.34087 3.9 8.34087 2.9C8.34087 2.4 8.54087 1.9 8.94087 1.5C9.34087 1.2 9.74087 1 10.2409 1H11.5409C12.0409 1 12.5409 1.2 12.9409 1.6C13.2409 1.9 13.4409 2.4 13.4409 2.9C13.4409 3.23333 13.5409 3.56667 13.7409 3.9C13.9409 4.3 14.3409 4.6 14.8409 4.7C15.3409 4.9 15.8409 4.8 16.3409 4.5C17.2409 4 18.4409 4.3 18.9409 5.2L19.5409 6.3V6.3ZM10.9409 13.2C9.44087 13.2 8.24087 12 8.24087 10.6C8.24087 9.1 9.44087 7.9 10.9409 7.9C12.3409 7.9 13.5409 9.1 13.5409 10.6C13.5409 12 12.3409 13.2 10.9409 13.2V13.2Z" stroke="currentColor" stroke-width="2" stroke-linecap="round" stroke-linejoin="round"/></svg>          