<svg width="35" height="38" viewBox="0 0 35 38" fill="none" xmlns="http://www.w3.org/2000/svg">
<path d="M3.336 35.144C2.68 35.144 2.14 35.052 1.716 34.868C1.3 34.676 0.996 34.412 0.804 34.076C0.62 33.732 0.544 33.328 0.576 32.864C0.584 32.728 0.636 32.66 0.732 32.66H1.656C1.752 32.66 1.8 32.72 1.8 32.84C1.8 33.28 1.932 33.6 2.196 33.8C2.46 34 2.868 34.1 3.42 34.1C3.948 34.1 4.344 34.008 4.608 33.824C4.88 33.64 5.016 33.36 5.016 32.984C5.016 32.8 4.984 32.644 4.92 32.516C4.864 32.38 4.76 32.26 4.608 32.156C4.456 32.052 4.256 31.948 4.008 31.844L2.244 31.112C1.868 30.952 1.564 30.776 1.332 30.584C1.108 30.392 0.944 30.172 0.84 29.924C0.744 29.676 0.696 29.392 0.696 29.072C0.704 28.4 0.928 27.888 1.368 27.536C1.816 27.184 2.468 27.008 3.324 27.008C3.916 27.008 4.424 27.092 4.848 27.26C5.28 27.428 5.6 27.676 5.808 28.004C6.024 28.332 6.112 28.736 6.072 29.216C6.056 29.36 6.008 29.432 5.928 29.432H4.992C4.952 29.432 4.92 29.416 4.896 29.384C4.88 29.352 4.876 29.296 4.884 29.216C4.908 28.848 4.78 28.56 4.5 28.352C4.22 28.144 3.82 28.04 3.3 28.04C2.844 28.04 2.5 28.124 2.268 28.292C2.036 28.452 1.916 28.696 1.908 29.024C1.908 29.2 1.94 29.352 2.004 29.48C2.068 29.608 2.176 29.728 2.328 29.84C2.48 29.952 2.688 30.064 2.952 30.176L4.692 30.908C5.068 31.06 5.368 31.232 5.592 31.424C5.824 31.616 5.988 31.836 6.084 32.084C6.18 32.332 6.228 32.632 6.228 32.984C6.228 33.664 5.996 34.196 5.532 34.58C5.068 34.956 4.336 35.144 3.336 35.144ZM9.47175 35.144C8.65575 35.144 8.03575 34.96 7.61175 34.592C7.19575 34.224 6.98775 33.676 6.98775 32.948V31.352C6.98775 30.576 7.19575 29.988 7.61175 29.588C8.02775 29.18 8.64375 28.976 9.45975 28.976C10.2678 28.976 10.8798 29.172 11.2958 29.564C11.7118 29.956 11.9198 30.528 11.9198 31.28V32.216C11.9198 32.304 11.8798 32.348 11.7998 32.348H8.18775V32.732C8.18775 33.22 8.29175 33.576 8.49975 33.8C8.70775 34.024 9.04375 34.136 9.50775 34.136C9.85975 34.136 10.1318 34.08 10.3238 33.968C10.5158 33.856 10.6118 33.684 10.6118 33.452C10.6118 33.364 10.6598 33.32 10.7558 33.32H11.6798C11.7518 33.32 11.7958 33.36 11.8118 33.44C11.8438 33.976 11.6518 34.396 11.2358 34.7C10.8198 34.996 10.2318 35.144 9.47175 35.144ZM8.18775 31.436H10.7318V31.376C10.7318 30.896 10.6278 30.544 10.4198 30.32C10.2118 30.096 9.89575 29.984 9.47175 29.984C9.03975 29.984 8.71575 30.1 8.49975 30.332C8.29175 30.564 8.18775 30.912 8.18775 31.376V31.436ZM14.987 35.144C14.547 35.144 14.199 35.076 13.943 34.94C13.687 34.796 13.499 34.58 13.379 34.292C13.267 33.996 13.211 33.628 13.211 33.188V30.14H12.299C12.219 30.14 12.179 30.096 12.179 30.008V29.252C12.179 29.164 12.219 29.12 12.299 29.12H13.247L13.391 27.68C13.399 27.6 13.447 27.56 13.535 27.56H14.267C14.355 27.56 14.399 27.6 14.399 27.68L14.411 29.12H16.127C16.215 29.12 16.259 29.164 16.259 29.252V30.008C16.259 30.096 16.215 30.14 16.127 30.14H14.411V33.14C14.411 33.492 14.471 33.744 14.591 33.896C14.719 34.04 14.935 34.112 15.239 34.112C15.391 34.112 15.543 34.096 15.695 34.064C15.855 34.024 15.995 33.976 16.115 33.92C16.163 33.904 16.199 33.908 16.223 33.932C16.255 33.948 16.271 33.976 16.271 34.016V34.796C16.271 34.868 16.239 34.916 16.175 34.94C16.023 34.996 15.847 35.044 15.647 35.084C15.455 35.124 15.235 35.144 14.987 35.144ZM19.1227 35.144C18.6827 35.144 18.3347 35.076 18.0787 34.94C17.8227 34.796 17.6347 34.58 17.5147 34.292C17.4027 33.996 17.3467 33.628 17.3467 33.188V30.14H16.4347C16.3547 30.14 16.3147 30.096 16.3147 30.008V29.252C16.3147 29.164 16.3547 29.12 16.4347 29.12H17.3827L17.5267 27.68C17.5347 27.6 17.5827 27.56 17.6707 27.56H18.4027C18.4907 27.56 18.5347 27.6 18.5347 27.68L18.5467 29.12H20.2627C20.3507 29.12 20.3947 29.164 20.3947 29.252V30.008C20.3947 30.096 20.3507 30.14 20.2627 30.14H18.5467V33.14C18.5467 33.492 18.6067 33.744 18.7267 33.896C18.8547 34.04 19.0707 34.112 19.3747 34.112C19.5267 34.112 19.6787 34.096 19.8307 34.064C19.9907 34.024 20.1307 33.976 20.2507 33.92C20.2987 33.904 20.3347 33.908 20.3587 33.932C20.3907 33.948 20.4067 33.976 20.4067 34.016V34.796C20.4067 34.868 20.3747 34.916 20.3107 34.94C20.1587 34.996 19.9827 35.044 19.7827 35.084C19.5907 35.124 19.3707 35.144 19.1227 35.144ZM21.1948 35C21.1068 35 21.0628 34.956 21.0628 34.868V29.252C21.0628 29.164 21.1068 29.12 21.1948 29.12H22.1308C22.2188 29.12 22.2628 29.164 22.2628 29.252V34.868C22.2628 34.956 22.2188 35 22.1308 35H21.1948ZM21.6628 28.196C21.4148 28.196 21.2308 28.132 21.1108 28.004C20.9908 27.868 20.9308 27.696 20.9308 27.488V27.344C20.9308 27.128 20.9908 26.956 21.1108 26.828C21.2308 26.7 21.4148 26.636 21.6628 26.636C21.9188 26.636 22.1028 26.7 22.2148 26.828C22.3348 26.956 22.3948 27.128 22.3948 27.344V27.488C22.3948 27.696 22.3348 27.868 22.2148 28.004C22.1028 28.132 21.9188 28.196 21.6628 28.196ZM27.3416 35C27.2536 35 27.2096 34.956 27.2096 34.868V31.1C27.2096 30.732 27.1336 30.464 26.9816 30.296C26.8376 30.12 26.6096 30.032 26.2976 30.032C26.0016 30.032 25.7096 30.12 25.4216 30.296C25.1336 30.464 24.7896 30.748 24.3896 31.148L24.3656 30.176C24.6216 29.904 24.8696 29.68 25.1096 29.504C25.3496 29.328 25.5936 29.196 25.8416 29.108C26.0976 29.02 26.3656 28.976 26.6456 28.976C27.2216 28.976 27.6576 29.144 27.9536 29.48C28.2576 29.808 28.4096 30.304 28.4096 30.968V34.868C28.4096 34.956 28.3696 35 28.2896 35H27.3416ZM23.5376 35C23.4496 35 23.4056 34.956 23.4056 34.868V30.608C23.4056 30.384 23.3936 30.148 23.3696 29.9C23.3536 29.644 23.3376 29.44 23.3216 29.288C23.3056 29.176 23.3496 29.12 23.4536 29.12H24.3056C24.3536 29.12 24.3856 29.128 24.4016 29.144C24.4256 29.16 24.4416 29.192 24.4496 29.24C24.4656 29.312 24.4816 29.412 24.4976 29.54C24.5136 29.668 24.5296 29.804 24.5456 29.948C24.5616 30.092 24.5696 30.216 24.5696 30.32L24.6056 30.704V34.868C24.6056 34.956 24.5616 35 24.4736 35H23.5376ZM31.7653 37.364C30.8133 37.364 30.1253 37.236 29.7013 36.98C29.2853 36.732 29.0773 36.356 29.0773 35.852C29.0773 35.54 29.1533 35.26 29.3053 35.012C29.4573 34.772 29.6933 34.576 30.0133 34.424L30.9373 34.76C30.7213 34.824 30.5613 34.932 30.4573 35.084C30.3533 35.236 30.3013 35.416 30.3013 35.624C30.3013 35.912 30.4133 36.112 30.6373 36.224C30.8613 36.336 31.2533 36.392 31.8133 36.392C32.4133 36.392 32.8253 36.332 33.0493 36.212C33.2733 36.1 33.3853 35.892 33.3853 35.588C33.3853 35.372 33.3333 35.212 33.2293 35.108C33.1333 35.012 32.9693 34.96 32.7373 34.952L30.5293 34.82C30.2573 34.804 30.0173 34.708 29.8093 34.532C29.6093 34.356 29.5093 34.084 29.5093 33.716C29.5093 33.548 29.5333 33.396 29.5813 33.26C29.6373 33.124 29.7213 32.996 29.8333 32.876C29.9533 32.748 30.1133 32.616 30.3133 32.48L31.0573 32.864C30.8813 32.928 30.7573 33.012 30.6853 33.116C30.6133 33.212 30.5773 33.32 30.5773 33.44C30.5773 33.568 30.6213 33.66 30.7093 33.716C30.7973 33.772 30.9333 33.808 31.1173 33.824L33.0853 33.944C33.5893 33.976 33.9613 34.132 34.2013 34.412C34.4493 34.684 34.5733 35.084 34.5733 35.612C34.5733 36.228 34.3493 36.672 33.9013 36.944C33.4533 37.224 32.7413 37.364 31.7653 37.364ZM31.8613 33.092C31.0933 33.092 30.5253 32.924 30.1573 32.588C29.7893 32.252 29.6053 31.736 29.6053 31.04C29.6053 30.344 29.7893 29.828 30.1573 29.492C30.5333 29.148 31.1133 28.976 31.8973 28.976C32.6573 28.976 33.2173 29.148 33.5773 29.492C33.9453 29.828 34.1293 30.348 34.1293 31.052C34.1293 31.748 33.9453 32.264 33.5773 32.6C33.2173 32.928 32.6453 33.092 31.8613 33.092ZM31.8613 32.108C32.2773 32.108 32.5613 32.028 32.7133 31.868C32.8733 31.708 32.9533 31.436 32.9533 31.052C32.9533 30.652 32.8733 30.372 32.7133 30.212C32.5533 30.044 32.2693 29.96 31.8613 29.96C31.4613 29.96 31.1813 30.044 31.0213 30.212C30.8613 30.372 30.7813 30.652 30.7813 31.052C30.7813 31.436 30.8613 31.708 31.0213 31.868C31.1813 32.028 31.4613 32.108 31.8613 32.108ZM33.3853 29.648L32.4613 29.276C32.4933 28.916 32.5293 28.612 32.5693 28.364C32.6093 28.108 32.6493 27.892 32.6893 27.716C32.7133 27.62 32.7613 27.572 32.8333 27.572H33.6853C33.7813 27.572 33.8133 27.616 33.7813 27.704C33.7013 27.96 33.6333 28.232 33.5773 28.52C33.5213 28.8 33.4573 29.176 33.3853 29.648Z" fill="currentColor"/>
<path d="M26.5409 7.3C27.0409 8.2 26.7409 9.4 25.8409 9.9C25.5742 10.1 25.3409 10.3333 25.1409 10.6C24.9409 11.1 24.8409 11.6 24.9409 12.1C25.1409 12.6 25.4409 13 25.8409 13.2C26.3409 13.5 26.6409 13.9 26.7409 14.4C26.8409 14.9 26.8409 15.4 26.5409 15.8L25.8409 16.9C25.3409 17.9 24.2409 18.2 23.2409 17.6C22.9742 17.4667 22.6742 17.4 22.3409 17.4C21.8409 17.4 21.3409 17.6 21.0409 17.9C20.6409 18.3 20.4409 18.8 20.4409 19.3C20.4409 20.3 19.6409 21.2 18.5409 21.2H17.2409C16.2409 21.2 15.3409 20.3 15.3409 19.3C15.3409 18.9667 15.2742 18.6667 15.1409 18.4C14.8409 17.9 14.4409 17.6 13.9409 17.5C13.4409 17.4 12.9409 17.4 12.5409 17.7C12.0409 17.9 11.5409 18 11.0409 17.8C10.5409 17.7 10.1409 17.4 9.94087 16.9L9.24087 15.8C8.74087 14.9 9.04087 13.8 9.94087 13.2C10.5409 12.9 10.9409 12.3 10.9409 11.6C10.9409 10.9 10.5409 10.3 9.94087 9.9C9.04087 9.4 8.74087 8.2 9.24087 7.3L9.94087 6.2C10.4409 5.3 11.6409 5 12.5409 5.5C12.8075 5.7 13.1075 5.8 13.4409 5.8C14.5409 5.8 15.3409 4.9 15.3409 3.9C15.3409 3.4 15.5409 2.9 15.9409 2.5C16.3409 2.2 16.7409 2 17.2409 2H18.5409C19.0409 2 19.5409 2.2 19.9409 2.6C20.2409 2.9 20.4409 3.4 20.4409 3.9C20.4409 4.23333 20.5409 4.56667 20.7409 4.9C20.9409 5.3 21.3409 5.6 21.8409 5.7C22.3409 5.9 22.8409 5.8 23.3409 5.5C24.2409 5 25.4409 5.3 25.9409 6.2L26.5409 7.3V7.3ZM17.9409 14.2C16.4409 14.2 15.2409 13 15.2409 11.6C15.2409 10.1 16.4409 8.9 17.9409 8.9C19.3409 8.9 20.5409 10.1 20.5409 11.6C20.5409 13 19.3409 14.2 17.9409 14.2V14.2Z" stroke="currentColor" stroke-width="2" stroke-linecap="round" stroke-linejoin="round"/>
</svg>
