<svg width="49" height="52" viewBox="0 0 49 52" fill="none" xmlns="http://www.w3.org/2000/svg">
<path d="M32.977 4.02667V10.5595C38.9256 13.6312 43.0036 19.831 43.0036 26.9925C43.0036 37.2087 34.7213 45.4944 24.5051 45.4944C14.2855 45.4944 5.99986 37.2087 5.99986 26.9925C5.99986 20.4255 9.43714 14.6665 14.5913 11.3847V4.59385C6.00328 8.40185 0 16.9899 0 26.9942C0 40.5264 10.9679 51.496 24.4983 51.496C38.0356 51.496 49 40.5264 49 26.9942C48.9983 16.4415 42.3168 7.48103 32.977 4.02667Z" fill="currentColor"/>
<path d="M24.0269 30.1565C26.7194 30.1565 26.9927 28.566 26.9927 26.6099V3.55345C26.9927 1.59222 26.7194 0 24.0269 0C21.3448 0 21.068 1.59222 21.068 3.55345V26.6099C21.0663 28.5677 21.3448 30.1565 24.0269 30.1565Z" fill="currentColor"/>
</svg>
